<?xml version="1.0" encoding="UTF-8"?>
<svg width="66px" height="28px" viewBox="0 0 66 28" version="1.1" xmlns="http://www.w3.org/2000/svg" xmlns:xlink="http://www.w3.org/1999/xlink">
    <title>bumper</title>
    <g id="Page-1" stroke="none" stroke-width="1" fill="none" fill-rule="evenodd">
        <g id="Extra-Large" transform="translate(-580.000000, -2165.000000)" fill="#E8882F" fill-rule="nonzero">
            <g id="section" transform="translate(0.000000, 1851.000000)">
                <g id="services" transform="translate(246.000000, 259.000000)">
                    <g id="cart-" transform="translate(292.000000, 0.000000)">
                        <g id="bumper" transform="translate(42.000000, 55.000000)">
                            <path d="M63.0749968,7.10783208e-05 L61.1777976,7.10783208e-05 C59.9387969,-0.00855754205 58.8323631,0.769156643 58.4282337,1.93281638 C58.2107134,2.54408414 57.6304162,2.95393648 56.9778387,2.95720138 C5.42351487,2.95720138 8.86046979,2.95720138 8.70236987,2.95720138 C8.12364124,2.84476373 7.6567044,2.42039882 7.49256173,1.85769481 C7.07011643,0.748443141 6.00544431,0.0107286741 4.81173689,7.10783208e-05 L2.90078996,7.10783208e-05 C1.29918465,0.0076446861 0.00375961571,1.29769997 0,2.88890904 L0,14.9151889 C0.000951403476,16.5132269 0.427857252,18.0825124 1.23730377,19.4634583 L1.23730377,24.6741634 C1.22997185,25.5537086 1.5765275,26.3997348 2.19996319,27.024248 C2.82339889,27.6487612 3.67207268,28 4.55740223,28 L11.2732121,28 C13.1068519,28 14.5933106,26.5232024 14.5933106,24.7014803 L14.5933106,24.018557 L25.1516361,24.018557 L25.1516361,26.5180564 C25.1516361,26.8952245 25.4593916,27.2009797 25.8390271,27.2009797 L40.2742378,27.2009797 C40.6538734,27.2009797 40.9616288,26.8952245 40.9616288,26.5180564 L40.9616288,24.018557 L51.4993326,24.018557 L51.4993326,24.7014803 C51.4993326,26.5232024 52.9857913,28 54.819431,28 L61.535241,28 C63.3688807,28 64.8553394,26.5232024 64.8553394,24.7014803 L64.8553394,19.2858983 C66.2301214,16.847862 65.9826606,15.0107982 65.9826606,11.725937 L65.9826606,2.88890904 C65.9788814,1.29504564 64.6792871,0.00389804589 63.0749968,7.10783208e-05 Z M58.1694915,4.48005971 C57.380044,6.8186698 57.5928516,6.17766523 57.1809659,7.41741034 C56.9352968,8.13091182 56.2844668,8.61354077 55.5471527,8.62897943 L41.8519538,8.62897943 C41.0224217,8.62946836 40.2347107,9.00271814 39.6964187,9.65036034 L38.8451883,10.6787853 C38.5632258,11.0104164 38.1551329,11.2005231 37.7262322,11.2000426 L29.6670023,11.2000426 C29.2403015,11.1994134 28.8347472,11.0093231 28.554911,10.6787853 L27.7036806,9.65036034 C27.1626885,9.00239646 26.3728056,8.62930575 25.5412808,8.62897943 L11.61268,8.62897943 C11.029521,8.63227357 10.4833646,8.33620421 10.1573505,7.84005072 C9.97886675,7.58646649 10.0406496,7.72030261 8.94915254,4.48005971 C9.36103822,4.5857198 57.7782001,4.59276381 58.1694915,4.48005971 L58.1694915,4.48005971 Z M2.23728814,2.62672923 C2.23728814,1.79725472 2.91296877,1.12378785 3.74891839,1.12006824 L5.64185862,1.12006824 C6.27956846,1.13063614 6.84265288,1.53550372 7.05135009,2.13351734 L7.05135009,2.13351734 L7.05135009,2.13351734 C8.27018571,5.65356388 8.5765969,6.46432316 8.83534413,7.23454447 C9.26965191,8.47473984 10.4468884,9.30677828 11.7700824,9.30873697 L25.5858225,9.30873697 C26.0121341,9.31086325 26.4167448,9.49558992 26.6957119,9.81546152 L27.540045,10.8018853 C28.0746874,11.4213076 28.8561996,11.7769285 29.6781141,11.7747964 L37.6448051,11.7747964 C38.4686978,11.7770829 39.2523631,11.4216144 39.7896834,10.8018853 L40.6340165,9.81546152 C40.910874,9.49663546 41.3129681,9.31192457 41.7370967,9.30873697 L55.3485627,9.30873697 C56.6736012,9.30761097 57.8532528,8.47579558 58.2901101,7.23454447 C58.385438,6.95753505 60.019631,2.30918185 60.0741041,2.12676101 C60.2874852,1.53612475 60.8446539,1.13624964 61.4767865,1.12006824 L63.3629176,1.12006824 C63.7656323,1.12006824 64.1518528,1.27880528 64.4366151,1.56135902 C64.7213774,1.84391277 64.8813559,2.22713789 64.8813559,2.62672923 L64.8813559,11.3694168 C64.8828158,14.8139623 62.5634952,17.8344611 59.2161528,18.7473263 C57.8134705,19.1391932 57.1325567,19.0243357 51.10647,19.0243357 C48.8730729,14.8219001 51.2903167,19.3959337 48.9207368,14.902976 C48.4134847,13.9393356 47.4085018,13.3352945 46.3128372,13.3355081 L20.9147541,13.3355081 C19.8166437,13.3327736 18.8084279,13.9371797 18.3000453,14.902976 C16.8633173,17.6055069 17.6736047,16.0988459 16.1143122,19.0243357 C9.50944875,19.0243357 9.19622842,19.1121679 7.89568315,18.7473263 C4.55104177,17.8319268 2.23498633,14.8120506 2.23728814,11.3694168 L2.23728814,2.62672923 Z M16.779661,19.0400227 L17.5827166,17.9200256 L48.4172834,17.9200256 L49.220339,19.0400227 L16.779661,19.0400227 Z M19.0169492,16.7783337 L19.3664344,16.290202 C19.6436656,15.9150597 20.1897767,15.6801511 20.7849335,15.6800313 L46.3384745,15.6800313 C46.9324671,15.6786533 47.4775547,15.9142599 47.7501209,16.290202 L48.0996062,16.7783337 C48.1338695,16.8271469 48.0859009,16.7783337 19.0169492,16.7783337 Z M13.4237288,24.8559978 C13.4237288,25.3927973 13.2291849,25.9076109 12.8828945,26.2871855 C12.5366041,26.6667601 12.0669335,26.8800028 11.5772049,26.8800028 L5.20245614,26.8800028 C4.18264913,26.8800028 3.3559322,25.9738249 3.3559322,24.8559978 L3.3559322,21.2800171 C4.99088207,23.1110153 7.23016148,24.1423223 9.56756044,24.1408016 L13.4237288,24.1408016 L13.4237288,24.8559978 Z M9.74963213,22.4000142 C6.22882312,22.3986301 3.1477884,20.1019101 2.23728814,16.8000284 C3.94456517,19.1924121 6.75176176,20.6198578 9.74963213,20.6200187 L25.7288136,20.6200187 L25.7288136,22.4000142 L9.74963213,22.4000142 Z M40.2711864,25.7600057 L26.8474576,25.7600057 L26.8474576,21.2800171 L40.2711864,21.2800171 L40.2711864,25.7600057 Z M63.7627119,24.903948 C63.7627119,25.995293 62.9359949,26.8800028 61.9161879,26.8800028 L55.5414392,26.8800028 C54.5216322,26.8800028 53.6949153,25.995293 53.6949153,24.903948 L53.6949153,24.2056954 L57.4401617,24.2056954 C59.8349167,24.2073466 62.1235311,23.1483199 63.7627119,21.2800171 L63.7627119,24.903948 Z M57.3337116,22.4000142 L41.3898305,22.4000142 L41.3898305,20.6200185 L57.3337116,20.6200185 C60.3453775,20.6187136 63.1652492,19.1915289 64.8813559,16.8000284 C63.9686838,20.1032687 60.8718794,22.4009472 57.3337116,22.4000142 L57.3337116,22.4000142 Z" id="Shape"></path>
                            <path d="M7.63639044,17.6589103 C8.85984604,17.9871173 9.68263782,17.9128063 11.7861229,17.9128063 C12.6729017,17.9152706 13.5065297,17.5471178 14.0246441,16.9242144 C14.5427584,16.3013111 14.6816448,15.5002578 14.3975924,14.7731652 L13.6320384,12.816308 C13.2544465,11.8497634 12.2065472,11.1994261 11.0277235,11.2000426 L6.10528226,11.2000426 C5.16951693,11.2036724 4.29952916,11.6171918 3.79386703,12.2986965 C3.2882049,12.9802012 3.21566236,13.8369742 3.60113336,14.5750025 C4.36615364,16.0606403 5.83841935,17.1858058 7.63639044,17.6589103 Z M6.82568252,12.3200398 L11.4713284,12.3200398 C11.999493,12.3312412 12.4641405,12.6609037 12.6344304,13.1452482 L13.3579881,15.2082693 C13.4857278,15.5736285 13.4251566,15.9761336 13.1950555,16.2909811 C12.9649544,16.6058286 12.593135,16.794964 12.1948861,16.7997427 L10.1662197,16.7997427 C8.24696402,16.8202283 6.49744105,15.7377478 5.70991604,14.0424987 C5.53110732,13.6701671 5.55918572,13.2354602 5.78451182,12.8876142 C6.00983793,12.5397682 6.40174211,12.326129 6.82568252,12.3200398 L6.82568252,12.3200398 Z" id="Shape"></path>
                            <path d="M54.0803257,17.6600625 C54.7963348,17.9821344 55.1829798,17.9140038 57.4956893,17.9140038 C60.091592,17.9355399 62.4556955,16.6248795 63.5173263,14.5756045 C63.9030872,13.8374447 63.8304901,12.9805187 63.3244477,12.2988925 C62.8184053,11.6172663 61.9477633,11.2036731 61.0112943,11.2000426 L56.0923114,11.2000426 C54.9126012,11.199426 53.8639139,11.8498793 53.4860381,12.8165964 L52.7270684,14.7738026 C52.2792672,15.8932774 52.8575649,17.1266847 54.0803257,17.6600625 L54.0803257,17.6600625 Z M53.7668195,15.221094 L54.5106572,13.1451703 C54.6801571,12.6529072 55.1518893,12.3209937 55.6833742,12.3200398 L60.2871261,12.3200398 C60.7089612,12.3205169 61.1016013,12.5305753 61.3293009,12.8775926 C61.5570004,13.2246099 61.5885094,13.6609606 61.4129344,14.0357874 C60.6296856,15.7444688 58.8789322,16.8318112 56.963311,16.7993199 L54.952939,16.7993199 C54.5511998,16.8072769 54.170692,16.6234368 53.9332428,16.3066595 C53.6957936,15.9898823 53.6311908,15.5799075 53.7601183,15.2079967 L53.7668195,15.221094 Z" id="Shape"></path>
                        </g>
                    </g>
                </g>
            </g>
        </g>
    </g>
</svg>