<?xml version="1.0" encoding="UTF-8"?>
<svg width="426px" height="74.8283237px" viewBox="0 0 426 74.8283237" version="1.1" xmlns="http://www.w3.org/2000/svg" xmlns:xlink="http://www.w3.org/1999/xlink">
    <title>car-accent-left</title>
    <g id="Page-1" stroke="none" stroke-width="1" fill="none" fill-rule="evenodd">
        <g id="Extra-Large" transform="translate(-747.000000, -3404.473259)" stroke="#EA8F25">
            <g id="section" transform="translate(0.000000, 2931.000000)">
                <g id="car-accent-left" transform="translate(747.000000, 474.000000)">
                    <g id="Group" transform="translate(213.000000, 36.998150) scale(-1, 1) translate(-213.000000, -36.998150) ">
                        <g transform="translate(0.000000, 64.809465)" id="Path" stroke-width="1.02943883">
                            <line x1="0" y1="0.206207855" x2="106.6296" y2="0.206207855"></line>
                        </g>
                        <g transform="translate(321.494759, 64.810661)" id="Path" stroke-width="1.02994381">
                            <line x1="0" y1="0.206207855" x2="104.505241" y2="0.206207855"></line>
                        </g>
                        <g transform="translate(89.214100, 0.000000)" id="Path" stroke-width="1.03027571">
                            <path d="M9.27917008,19.5411091 C9.27917008,19.5411091 20.1652848,21.3347463 23.4811348,19.8501437 C26.7969849,18.3655412 80.6563925,0.57719681 102.209418,0.0907762459 C102.209418,0.0907762459 119.724145,-1.16359546 134.626946,5.65340023 C149.529747,12.4703959 161.984252,17.4022801 163.648352,17.9959357 C165.312452,18.5895913 199.378643,18.4288933 208.724153,19.8501437 C218.069664,21.2713942 225.044063,22.9954986 228.483409,24.1954802 C231.765298,25.3404536 238.418609,28.179246 239.59799,30.3761735 C240.77737,32.5731009 239.042261,34.1714282 239.59799,36.5568668 C240.153719,38.9423054 241.873392,43.2663184 241.45042,44.8819517 C241.027448,46.4975849 239.851155,45.5259799 239.59799,47.354229 C239.344824,49.1824781 248.298237,58.0551724 248.631674,57.9457741 C248.968199,57.8363758 225.349714,58.6534635 222.926118,58.7885116 C221.996816,58.8404294 221.073688,58.1892934 221.073688,58.1892934 C221.073688,58.1892934 224.651966,32.377791 201.005694,31.9837718 C179.492805,31.6256006 178.353561,55.2627351 178.776532,59.7156156 C178.813581,60.1096348 176.704898,60.7320306 176.704898,60.7320306 L121.845178,61.2796401 C121.845178,61.2796401 74.4353145,61.0574441 72.8792731,61.2796401 C71.3232318,61.501836 77.8406986,34.6519771 52.8112794,31.9837718 C27.7818603,29.3158755 28.8933184,58.3323764 28.8377455,58.4794769 C28.7790852,58.6265774 8.32208116,58.2291589 7.4267399,57.552373 C6.53139864,56.875587 0.239310778,50.3895675 0.0170191559,48.9182534 C-0.205272466,47.4469394 1.81696382,44.7095103 2.17818771,42.7375601 C2.53941159,40.7656099 -0.529447749,37.2188191 0.943234249,34.6838077 C2.41591625,32.1487963 7.60889553,25.3586867 8.66169336,24.1954802 C9.71449118,23.0322737 5.90774715,21.5065695 6.50052481,21.3953171 C7.09330247,21.2840646 9.27917008,19.5411091 9.27917008,19.5411091 Z"></path>
                        </g>
                        <g transform="translate(320.084028, 44.881695)" id="Path" stroke-width="0.282504762">
                            <polygon points="10.5757426 0 5.32783003 0.620399063 0 10.3974617 7.99174505 7.73099005 7.99174505 3.28687068"></polygon>
                        </g>
                        <g transform="translate(307.652425, 29.271282)" id="Path" stroke-width="0.282504762">
                            <path d="M0,0 L13.3195751,0.231983031 C13.3195751,0.231983031 17.3509665,1.13947221 18.6474051,1.1208069 C19.9438437,1.1021416 20.2546338,4.64321591 18.6474051,5.56492627 C17.0401764,6.48663663 9.65225207,5.11162609 8.87971672,5.56492627 C8.10718136,6.01822644 0,0 0,0 Z"></path>
                        </g>
                        <g transform="translate(89.528239, 21.929299)" id="Path" stroke-width="0.282504762">
                            <path d="M7.42626762,0.463374548 C8.17216382,-1.28049789 11.2179067,2.23835582 10.3388147,5.35634997 C9.46860246,8.47434412 0.233697078,14.6845565 0.233697078,14.6845565 C-1.41793023,14.1308192 6.18310728,3.35027449 7.42626762,0.463374548 Z"></path>
                        </g>
                        <g transform="translate(121.957126, 33.466825)" fill="#EA8F25" id="Shape" stroke-width="0.514717888">
                            <path d="M18.5243327,0 C28.7497644,0 37.0486655,8.30847802 37.0486655,18.5421108 C37.0486655,28.7757437 28.7497644,37.0842217 18.5243327,37.0842217 C8.30212269,37.0842217 0,28.7757437 0,18.5421108 C0,8.30847802 8.30212269,0 18.5243327,0 Z M6.52378674,15.6189068 C6.75252198,14.6695507 7.09401403,13.7630833 7.52893315,12.9133709 L6.17585145,15.4518665 L6.52378674,15.6189068 Z M7.80523254,12.5567175 C7.7191086,12.6989661 7.63298466,12.8427737 7.55116691,12.9877504 L7.80523254,12.5567175 Z M15.4380178,6.57067914 C12.119746,7.42651848 9.34270694,9.62738642 7.71900891,12.5567175 L16.6718995,15.4518665 L15.4380178,6.57067914 Z M18.5243327,6.18081111 C17.4579755,6.18081111 16.4238345,6.33016883 15.4380178,6.61074798 C16.9328509,6.63706339 18.5243327,6.18081111 18.5243327,6.18081111 Z M27.1679475,9.57998311 C25.0545627,7.8821707 21.4431232,6.18081111 18.5243327,6.18081111 C18.5243327,6.18081111 19.8967442,15.5611844 20.0674902,15.4518665 C22.2453074,14.0642717 27.1679475,9.57998311 27.1679475,9.57998311 Z M29.2201214,12.3612997 C28.4501535,11.0288475 28.3631696,10.5383684 27.1679475,9.57998311 C27.1679475,9.57998311 28.3373966,12.1252506 29.2201214,12.3612997 Z M29.9739812,23.1776386 C30.5538733,21.7458651 30.872814,20.180911 30.872814,18.5421108 C30.872814,16.2912598 29.9256568,13.5618611 28.8754077,11.7434444 L21.9199235,18.2331832 C24.6905193,19.8971361 29.9739812,23.1776386 29.9739812,23.1776386 Z M28.163429,26.2678829 C28.9076239,25.3381976 29.5197323,24.2988719 29.9739812,23.1776386 C29.9739812,23.1776386 28.1859804,25.7996543 28.163429,26.2678829 Z M12.3484813,29.2475195 C14.1654767,30.3007114 16.2756398,30.9034106 18.5243327,30.9034106 C22.4224967,30.9034106 25.898628,29.0933781 28.163429,26.2678829 L19.1428844,21.3234275 L12.3484813,29.2475195 Z M9.26216637,26.7151508 C10.1448911,27.7167473 11.188697,28.574199 12.3484813,29.2475195 L9.26216637,26.7151508 Z M6.52378674,15.6189068 C6.29505151,16.5563314 6.17585145,17.5353548 6.17585145,18.5421108 C6.17585145,21.6742765 7.34207901,24.535566 9.26216637,26.7151508 L15.7472936,19.1602887 L6.52378674,15.6189068 Z"></path>
                        </g>
                        <g transform="translate(290.222314, 52.005081) rotate(12.011783) translate(-290.222314, -52.005081) translate(271.698032, 33.463022)" fill="#EA8F25" id="Shape" stroke-width="0.514716466">
                            <path d="M18.5242816,0 C28.749685,0 37.0485632,8.30845507 37.0485632,18.5420596 C37.0485632,28.7756642 28.749685,37.0841193 18.5242816,37.0841193 C8.30209976,37.0841193 0,28.7756642 0,18.5420596 C0,8.30845507 8.30209976,0 18.5242816,0 Z M6.52376873,15.6188636 C6.75250334,14.6695102 7.09399444,13.7630453 7.52891236,12.9133353 L6.1758344,15.4518239 L6.52376873,15.6188636 Z M7.80521194,12.5566828 C7.71908799,12.6989315 7.63296405,12.842739 7.55114631,12.9877158 L7.80521194,12.5566828 Z M15.4379752,6.570661 C12.1197126,7.42649798 9.34268114,9.62735984 7.71898759,12.5566828 L16.6718534,15.4518239 L15.4379752,6.570661 Z M18.5242816,6.18079404 C17.4579273,6.18079404 16.4237891,6.33015176 15.4379752,6.61073092 C16.9328042,6.63704633 18.5242816,6.18079404 18.5242816,6.18079404 Z M27.1678724,9.57995666 C25.0544935,7.88214894 21.443064,6.18079404 18.5242816,6.18079404 C18.5242816,6.18079404 19.8966892,15.5611414 20.0674348,15.4518239 C22.245246,14.0642329 27.1678724,9.57995666 27.1678724,9.57995666 Z M29.2200407,12.3612656 C28.4500749,11.0288171 28.3630913,10.5383393 27.1678724,9.57995666 C27.1678724,9.57995666 28.3373184,12.1252171 29.2200407,12.3612656 Z M29.9738984,23.1775746 C30.553789,21.7458051 30.8727288,20.1808552 30.8727288,18.5420596 C30.8727288,16.2912148 29.9255742,13.5618237 28.875328,11.7434119 L21.9198629,18.2331328 C24.6904511,19.8970811 29.9738984,23.1775746 29.9738984,23.1775746 Z M28.1633512,26.2678103 C28.9075441,25.3381276 29.5196508,24.2988048 29.9738984,23.1775746 C29.9738984,23.1775746 28.1859025,25.799583 28.1633512,26.2678103 Z M12.3484472,29.2474387 C14.1654376,30.3006277 16.2755949,30.9033252 18.5242816,30.9033252 C22.4224347,30.9033252 25.8985565,29.0932978 28.1633512,26.2678103 L19.1428315,21.3233686 L12.3484472,29.2474387 Z M9.26214079,26.7150771 C10.1448631,27.7166708 11.1886661,28.5741201 12.3484472,29.2474387 L9.26214079,26.7150771 Z M6.52376873,15.6188636 C6.29503412,16.5562857 6.1758344,17.5353064 6.1758344,18.5420596 C6.1758344,21.6742166 7.34205873,24.5354983 9.26214079,26.7150771 L15.7472501,19.1602358 L6.52376873,15.6188636 Z"></path>
                        </g>
                        <g transform="translate(178.456506, 26.049688)" id="Path" stroke-width="0.283200352">
                            <path d="M0,1.23613866 L0.926215093,0.309034666 L5.24855219,0 C8.12908113,0.774131838 11.0126975,0.946573181 13.8932264,0.309034666 L15.1281799,1.54517333 L13.584488,2.47227733 L2.16116855,2.47227733 L0,1.23613866 Z"></path>
                        </g>
                        <g transform="translate(146.654399, 3.679971)" id="Path" stroke-width="0.283200352">
                            <path d="M0.00205614682,9.68044515 L6.17682343,14.3159651 L96.6371642,16.1890242 C96.6371642,16.1890242 79.9251565,6.2130762 67.9244963,1.97342963 C56.2171375,-2.16238131 39.3878093,1.3955348 33.9632762,1.97342963 C28.3164515,2.57481108 -0.278895765,9.40015071 0.00205614682,9.68044515 Z"></path>
                        </g>
                        <g transform="translate(173.825431, 6.889539)" id="Path" stroke-width="0.283200352">
                            <path d="M0,0 L4.3223371,11.1063969 C4.3223371,11.1063969 0.370486037,19.6700565 0.617476729,20.7053226 C0.86446742,21.7405887 1.17320578,21.2482965 1.54369182,23.1775999 C1.91417786,25.1069033 5.9833495,37.8456213 6.79224401,39.2474025 C7.60113853,40.6491838 8.00558579,43.1455658 8.6446742,43.2648532 C9.28376261,43.3841406 17.8327279,54.2222953 18.5243019,54.3913373 C19.2158758,54.5606883 74.7146842,53.7720318 74.7146842,53.7720318 L76.5671143,44.1919572 C76.5671143,44.1919572 78.1756412,23.3321173 78.1108062,23.1775999 C78.0459711,23.0230826 78.1108062,21.0143573 78.1108062,21.0143573 L74.0972074,14.5246293 L72.862254,14.833664 L70.0836087,12.979456 L4.3223371,11.1063969"></path>
                        </g>
                        <g transform="translate(228.780860, 13.688302)" id="Path" stroke-width="0.514779375">
                            <path d="M1.85243019,0 L0.617476729,1.23613866 L0,4.63551999 L1.85243019,6.79876265 L9.26215093,6.79876265 L12.3495346,6.13588329 C12.3495346,6.13588329 8.19700357,1.25375364 1.85243019,0 Z"></path>
                        </g>
                    </g>
                </g>
            </g>
        </g>
    </g>
</svg>