<?xml version="1.0" encoding="UTF-8"?>
<svg width="49px" height="49px" viewBox="0 0 49 49" version="1.1" xmlns="http://www.w3.org/2000/svg" xmlns:xlink="http://www.w3.org/1999/xlink">
    <title>car-weel</title>
    <g id="Page-1" stroke="none" stroke-width="1" fill="none" fill-rule="evenodd">
        <g id="Extra-Large" transform="translate(-1454.000000, -2150.000000)" fill="#E8882F" fill-rule="nonzero">
            <g id="section" transform="translate(0.000000, 1851.000000)">
                <g id="services" transform="translate(246.000000, 259.000000)">
                    <g id="cart" transform="translate(1168.000000, 4.000000)">
                        <g id="car-weel" transform="translate(40.000000, 36.000000)">
                            <path d="M24.5,0 C10.9858101,0 0,10.9858101 0,24.5 C0,38.0141899 10.9858101,49 24.5,49 C38.0141899,49 49,38.0141899 49,24.5 C49,10.9858101 38.0141899,0 24.5,0 L24.5,0 Z M24.5,41.9078947 C14.8921569,41.9078947 7.09210526,34.120485 7.09210526,24.5 C7.09210526,14.8921569 14.879515,7.09210526 24.5,7.09210526 C34.1078431,7.09210526 41.9078947,14.879515 41.9078947,24.5 C41.9078947,34.1078431 34.1078431,41.9078947 24.5,41.9078947 L24.5,41.9078947 Z" id="1397549028"></path>
                            <path d="M24,10 C15.7237062,10 9,16.736227 9,25 C9,33.263773 15.7237062,40 24,40 C32.2762938,40 39,33.263773 39,25 C39,16.736227 32.2762938,10 24,10 L24,10 Z M37.0843072,24.048414 L29.8096828,24.048414 C29.6594324,23.1218698 29.2963272,22.2829716 28.7704508,21.5567613 L33.9165275,16.4232053 C35.7070117,18.4891486 36.8714524,21.1310518 37.0843072,24.048414 L37.0843072,24.048414 Z M24.9390651,11.9156928 C27.8439065,12.1285476 30.4983306,13.2804674 32.5767947,15.0834725 L27.4432387,20.2170284 C26.7170284,19.6911519 25.8656093,19.3280467 24.951586,19.1777963 L24.951586,11.9156928 L24.9390651,11.9156928 Z M23.0609349,11.9156928 L23.0609349,19.1777963 C22.1469115,19.3280467 21.2954925,19.6911519 20.5692821,20.2170284 L15.4357262,15.0834725 C17.5016694,13.2804674 20.1560935,12.1285476 23.0609349,11.9156928 L23.0609349,11.9156928 Z M14.0959933,16.4106845 L19.2295492,21.5442404 C18.7036728,22.2704508 18.3405676,23.1218698 18.1903172,24.0358932 L10.9156928,24.0358932 C11.1285476,21.1310518 12.2929883,18.4891486 14.0959933,16.4106845 L14.0959933,16.4106845 Z M10.9156928,25.9265442 L18.2028381,25.9265442 C18.3530885,26.8405676 18.7161937,27.6919866 19.2420701,28.418197 L14.0834725,33.5767947 C12.2804674,31.4858097 11.1160267,28.8439065 10.9156928,25.9265442 L10.9156928,25.9265442 Z M23.0609349,38.0843072 C20.1435726,37.8714524 17.4891486,36.7195326 15.4106845,34.9040067 L20.5692821,29.745409 C21.2954925,30.2712855 22.1469115,30.6343907 23.0609349,30.7846411 L23.0609349,38.0843072 L23.0609349,38.0843072 Z M23.0609349,28.8564274 L23.0609349,28.8689482 C22.6602671,28.7687813 22.2721202,28.60601 21.9215359,28.3931553 L21.9340568,28.3806344 C21.3956594,28.0550918 20.9323873,27.5918197 20.6068447,27.0534224 L20.5943239,27.0659432 C20.3814691,26.7153589 20.2186978,26.3397329 20.1185309,25.9265442 L20.1310518,25.9265442 C20.0559265,25.6260434 20.0183639,25.3130217 20.0183639,24.9874791 C20.0183639,24.6619366 20.0559265,24.3489149 20.1310518,24.048414 L20.1185309,24.048414 C20.2186978,23.6477462 20.3814691,23.2595993 20.5943239,22.909015 L20.6068447,22.9215359 C20.9323873,22.3831386 21.3956594,21.9198664 21.9340568,21.5943239 L21.9215359,21.581803 C22.2721202,21.3689482 22.6477462,21.206177 23.0609349,21.10601 L23.0609349,21.1185309 C23.3614357,21.0434057 23.6744574,21.0058431 24,21.0058431 C24.3255426,21.0058431 24.6385643,21.0559265 24.9390651,21.1185309 L24.9390651,21.10601 C25.3397329,21.206177 25.7278798,21.3689482 26.0784641,21.581803 L26.0659432,21.5943239 C26.6043406,21.9198664 27.0676127,22.3831386 27.3931553,22.9215359 L27.4056761,22.909015 C27.6185309,23.2595993 27.7813022,23.6352254 27.8814691,24.048414 L27.8689482,24.048414 C27.9440735,24.3489149 27.9816361,24.6619366 27.9816361,24.9874791 C27.9816361,25.3130217 27.9440735,25.6260434 27.8689482,25.9265442 L27.8814691,25.9265442 C27.7813022,26.327212 27.6185309,26.7153589 27.4056761,27.0659432 L27.3931553,27.0534224 C27.0676127,27.5918197 26.6043406,28.0550918 26.0659432,28.3806344 L26.0784641,28.3931553 C25.7278798,28.60601 25.3522538,28.7687813 24.9390651,28.8689482 L24.9390651,28.8564274 C24.6385643,28.9315526 24.3255426,28.9691152 24,28.9691152 C23.6744574,28.9691152 23.3614357,28.9190317 23.0609349,28.8564274 L23.0609349,28.8564274 Z M24.9390651,38.0843072 L24.9390651,30.7846411 C25.8530885,30.6343907 26.7045075,30.2712855 27.4307179,29.745409 L32.5893155,34.9040067 C30.5108514,36.7195326 27.8564274,37.8714524 24.9390651,38.0843072 L24.9390651,38.0843072 Z M33.9165275,33.5767947 L28.7579299,28.418197 C29.2838063,27.6919866 29.6469115,26.8405676 29.7971619,25.9265442 L37.0843072,25.9265442 C36.8839733,28.8439065 35.7195326,31.4858097 33.9165275,33.5767947 L33.9165275,33.5767947 Z" id="1778593361"></path>
                        </g>
                    </g>
                </g>
            </g>
        </g>
    </g>
</svg>