<?xml version="1.0" encoding="UTF-8"?>
<svg width="426px" height="74.9909929px" viewBox="0 0 426 74.9909929" version="1.1" xmlns="http://www.w3.org/2000/svg" xmlns:xlink="http://www.w3.org/1999/xlink">
    <title>car-accent-right</title>
    <g id="Page-1" stroke="none" stroke-width="1" fill="none" fill-rule="evenodd">
        <g id="Extra-Large" transform="translate(-746.000000, -1046.473313)" stroke="#EA8F25">
            <g id="car-accent-right" transform="translate(746.000000, 1047.000000)">
                <g id="Group" transform="translate(0.000000, 65.000000)" stroke-width="1.02943883">
                    <line x1="0" y1="0.412415711" x2="106.749415" y2="0.412415711" id="Path"></line>
                </g>
                <g id="Group" transform="translate(321.245902, 65.000000)" stroke-width="1.02994381">
                    <line x1="0" y1="0.412415711" x2="104.754098" y2="0.412415711" id="Path"></line>
                </g>
                <g id="Group" transform="translate(88.791569, 0.000000)" stroke-width="1.03027571">
                    <path d="M9.27102027,19.451501 C9.27102027,19.451501 20.1475738,21.2369132 23.4605116,19.7591185 C26.7734493,18.2813238 80.5855528,0.574550005 102.119648,0.0903599806 C102.119648,0.0903599806 119.618993,-1.15825966 134.508704,5.62747589 C149.398416,12.4132114 161.841983,17.3224799 163.504621,17.9134132 C165.16726,18.5043465 199.203531,18.3443854 208.540833,19.7591185 C217.878135,21.1738516 224.846409,22.89005 228.282734,24.0845289 C231.56174,25.2242519 238.209208,28.0500268 239.387553,30.2368799 C240.565898,32.4237331 238.832312,34.0147311 239.387553,36.3892309 C239.942794,38.7637308 241.660956,43.0679156 241.238356,44.6761401 C240.815756,46.2843647 239.640496,45.3172151 239.387553,47.1370805 C239.13461,48.9569459 248.080159,57.7889534 248.413303,57.6800568 C248.749533,57.5711602 225.151792,58.384501 222.730324,58.5189299 C221.801838,58.5706096 220.879521,57.9224595 220.879521,57.9224595 C220.879521,57.9224595 224.454656,32.2293188 200.829153,31.8371064 C179.335158,31.4805777 178.196914,55.0093213 178.619514,59.4417825 C178.65653,59.8339949 176.549699,60.4535367 176.549699,60.4535367 L121.738162,60.998635 C121.738162,60.998635 74.3699386,60.7774579 72.8152639,60.998635 C71.2605892,61.219812 77.7723319,34.4930763 52.7648958,31.8371064 C27.7574597,29.1814441 28.8679416,58.0648864 28.8124175,58.2113123 C28.7538088,58.3577383 8.31477195,57.9621421 7.42021706,57.2884597 C6.52566218,56.6147772 0.239100594,50.1585001 0.0170042082,48.6939329 C-0.205092177,47.2293658 1.815368,44.5044895 2.17627462,42.5415819 C2.53718125,40.5786743 -0.52898274,37.0481477 0.942405815,34.524761 C2.41379437,32.0013742 7.60221271,25.2424014 8.65408587,24.0845289 C9.70595903,22.9266565 5.90255843,21.4079486 6.49481545,21.2972063 C7.08707248,21.186464 9.27102027,19.451501 9.27102027,19.451501 Z" id="Path"></path>
                </g>
                <g id="Group" transform="translate(319.250585, 45.000000)" stroke-width="0.282504762">
                    <polygon id="Path" points="10.9742389 0 5.52858382 0.596683194 0 10 8.29287572 7.43545905 8.29287572 3.16122414"></polygon>
                </g>
                <g id="Group" transform="translate(307.278689, 29.000000)" stroke-width="0.282504762">
                    <path d="M0,0 L13.4638279,0.236290968 C13.4638279,0.236290968 17.5388799,1.16063226 18.8493591,1.14162035 C20.1598384,1.12260843 20.4739944,4.72944068 18.8493591,5.66826724 C17.2247239,6.60709381 9.75678732,5.20654926 8.97588529,5.66826724 C8.19498327,6.12998523 0,0 0,0 Z" id="Path"></path>
                </g>
                <g id="Group" transform="translate(88.791569, 22.000000)" stroke-width="0.282504762">
                    <path d="M7.76414869,0.473328439 C8.54398175,-1.30800466 11.7283001,2.28643863 10.8092111,5.47141137 C9.89940589,8.65638411 0.244329851,15 0.244329851,15 C-1.48244336,14.4343677 6.46442691,3.42224277 7.76414869,0.473328439 Z" id="Path"></path>
                </g>
                <g id="Group" transform="translate(121.714286, 34.000000)" fill="#EA8F25" stroke-width="0.514717888">
                    <path d="M18.4566745,0 C28.6447588,0 36.9133489,8.2896087 36.9133489,18.5 C36.9133489,28.7103913 28.6447588,37 18.4566745,37 C8.27180002,37 0,28.7103913 0,18.5 C0,8.2896087 8.27180002,0 18.4566745,0 Z M6.49995927,15.5834348 C6.72785908,14.6362348 7.06810386,13.7318261 7.50143448,12.8840435 L6.15329478,15.4167739 L6.49995927,15.5834348 Z M7.77672472,12.5282 C7.69091534,12.6701256 7.60510595,12.8136066 7.52358704,12.9582541 L7.77672472,12.5282 Z M15.381632,6.55575652 C12.0754799,7.40965217 9.30858365,9.60552174 7.69081601,12.5282 L16.611007,15.4167739 L15.381632,6.55575652 Z M18.4566745,6.16677391 C17.394212,6.16677391 16.3638481,6.31579243 15.381632,6.59573437 C16.8710054,6.62199001 18.4566745,6.16677391 18.4566745,6.16677391 Z M27.0687193,9.55822609 C24.9630535,7.86426957 21.3648044,6.16677391 18.4566745,6.16677391 C18.4566745,6.16677391 19.8240733,15.5258435 19.9941957,15.4167739 C22.1640586,14.0323304 27.0687193,9.55822609 27.0687193,9.55822609 Z M29.1133978,12.3332261 C28.3462421,11.0038 28.259576,10.5144348 27.0687193,9.55822609 C27.0687193,9.55822609 28.2338972,12.097713 29.1133978,12.3332261 Z M29.8645042,23.125 C30.4422784,21.6964783 30.7600542,20.1350783 30.7600542,18.5 C30.7600542,16.2542609 29.8163564,13.5310609 28.7699432,11.7167739 L21.8398632,18.1917739 C24.6003397,19.8519478 29.8645042,23.125 29.8645042,23.125 Z M28.0605649,26.2082261 C28.8020417,25.2806522 29.4119145,24.243687 29.8645042,23.125 C29.8645042,23.125 28.0830339,25.7410609 28.0605649,26.2082261 Z M12.3033797,29.1810957 C14.1137387,30.2318957 16.2161947,30.8332261 18.4566745,30.8332261 C22.3406008,30.8332261 25.8040358,29.0273043 28.0605649,26.2082261 L19.0729669,21.275 L12.3033797,29.1810957 Z M9.22833724,26.6544783 C10.1078379,27.6538 11.1478314,28.5093043 12.3033797,29.1810957 L9.22833724,26.6544783 Z M6.49995927,15.5834348 C6.27205946,16.5187304 6.15329478,17.4955304 6.15329478,18.5 C6.15329478,21.6250522 7.3152628,24.4798435 9.22833724,26.6544783 L15.6897782,19.1167739 L6.49995927,15.5834348 Z" id="Shape"></path>
                </g>
                <g id="Group" transform="translate(289.820515, 52.173141) rotate(12.011783) translate(-289.820515, -52.173141) translate(271.321880, 33.631081)" fill="#EA8F25" stroke-width="0.514716466">
                    <path d="M18.4986356,0 C28.7098825,0 36.9972712,8.30845507 36.9972712,18.5420596 C36.9972712,28.7756642 28.7098825,37.0841193 18.4986356,37.0841193 C8.29060591,37.0841193 0,28.7756642 0,18.5420596 C0,8.30845507 8.29060591,0 18.4986356,0 Z M6.51473689,15.6188636 C6.74315483,14.6695102 7.08417315,13.7630453 7.51848894,12.9133353 L6.16728426,15.4518239 L6.51473689,15.6188636 Z M7.794406,12.5566828 C7.70840129,12.6989315 7.62239659,12.842739 7.54069211,12.9877158 L7.794406,12.5566828 Z M15.4166021,6.570661 C12.1029334,7.42649798 9.32974666,9.62735984 7.70830103,12.5566828 L16.6487721,15.4518239 L15.4166021,6.570661 Z M18.4986356,6.18079404 C17.4337576,6.18079404 16.4010512,6.33015176 15.4166021,6.61073092 C16.9093615,6.63704633 18.4986356,6.18079404 18.4986356,6.18079404 Z M27.1302599,9.57995666 C25.0198068,7.88214894 21.4133772,6.18079404 18.4986356,6.18079404 C18.4986356,6.18079404 19.8691432,15.5611414 20.0396524,15.4518239 C22.2144485,14.0642329 27.1302599,9.57995666 27.1302599,9.57995666 Z M29.179587,12.3612656 C28.4106872,11.0288171 28.323824,10.5383393 27.1302599,9.57995666 C27.1302599,9.57995666 28.2980868,12.1252171 29.179587,12.3612656 Z M29.932401,23.1775746 C30.5114887,21.7458051 30.829987,20.1808552 30.829987,18.5420596 C30.829987,16.2912148 29.8841437,13.5618237 28.8353515,11.7434119 L21.889516,18.2331328 C24.6562684,19.8970811 29.932401,23.1775746 29.932401,23.1775746 Z M28.1243604,26.2678103 C28.867523,25.3381276 29.4787823,24.2988048 29.932401,23.1775746 C29.932401,23.1775746 28.1468805,25.799583 28.1243604,26.2678103 Z M12.3313514,29.2474387 C14.1458262,30.3006277 16.2530621,30.9033252 18.4986356,30.9033252 C22.391392,30.9033252 25.8627012,29.0932978 28.1243604,26.2678103 L19.1163292,21.3233686 L12.3313514,29.2474387 Z M9.24931781,26.7150771 C10.130818,27.7166708 11.1731759,28.5741201 12.3313514,29.2474387 L9.24931781,26.7150771 Z M6.51473689,15.6188636 C6.28631896,16.5562857 6.16728426,17.5353064 6.16728426,18.5420596 C6.16728426,21.6742166 7.33189401,24.5354983 9.24931781,26.7150771 L15.7254489,19.1602358 L6.51473689,15.6188636 Z" id="Shape"></path>
                </g>
                <g id="Group" transform="translate(178.580796, 26.000000)" stroke-width="0.283200352">
                    <path d="M0,1 L0.916216604,0.25 L5.19189409,0 C8.04132773,0.62625 10.8938154,0.76575 13.7432491,0.25 L14.9648712,1.25 L13.4378435,2 L2.13783874,2 L0,1 Z" id="Path"></path>
                </g>
                <g id="Group" transform="translate(146.655738, 4.000000)" stroke-width="0.283200352">
                    <path d="M0.00205903346,9.56741556 L6.18549512,14.1488109 L96.7728337,16 C96.7728337,16 80.037364,6.14053187 68.0198559,1.95038771 C56.2960611,-2.13713318 39.4431061,1.37924043 34.0109575,1.95038771 C28.3562052,2.5447474 -0.279287308,9.29039385 0.00205903346,9.56741556 Z" id="Path"></path>
                </g>
                <g id="Group" transform="translate(173.592506, 7.000000)" stroke-width="0.283200352">
                    <path d="M0,0 L4.30599211,11.0216585 C4.30599211,11.0216585 0.369085038,19.51998 0.61514173,20.5473474 C0.861198422,21.5747148 1.16876929,21.0861786 1.53785432,23.000762 C1.90693936,24.9153454 5.96072336,37.5568709 6.76655903,38.947957 C7.57239469,40.3390431 7.97531253,42.8163785 8.61198422,42.9347558 C9.24865591,43.053133 17.7652932,53.808596 18.4542519,53.9763482 C19.1432106,54.1444071 74.4321493,53.3617679 74.4321493,53.3617679 L76.2775745,43.8547862 C76.2775745,43.8547862 77.8800187,23.1541004 77.8154288,23.000762 C77.7508389,22.8474236 77.8154288,20.8540242 77.8154288,20.8540242 L73.8170076,14.4138109 L72.5867241,14.7204877 L69.8185863,12.8804267 L4.30599211,11.0216585" id="Path"></path>
                </g>
                <g id="Group" transform="translate(228.463700, 14.000000)" stroke-width="0.514779375">
                    <path d="M1.79578454,0 L0.598594848,1.27272727 L0,4.77272727 L1.79578454,7 L8.97892272,7 L11.971897,6.3175 C11.971897,6.3175 7.9463466,1.29086364 1.79578454,0 Z" id="Path"></path>
                </g>
            </g>
        </g>
    </g>
</svg>