<?xml version="1.0" encoding="UTF-8"?>
<svg width="50px" height="43.1px" viewBox="0 0 50 43.1" version="1.1" xmlns="http://www.w3.org/2000/svg" xmlns:xlink="http://www.w3.org/1999/xlink">
    <title>car</title>
    <g id="Page-1" stroke="none" stroke-width="1" fill="none" fill-rule="evenodd">
        <g id="Extra-Large" transform="translate(-872.000000, -2162.000000)" fill="#E8882F" fill-rule="nonzero">
            <g id="section" transform="translate(0.000000, 1851.000000)">
                <g id="services" transform="translate(246.000000, 259.000000)">
                    <g id="cart-" transform="translate(584.000000, 10.000000)">
                        <g id="car" transform="translate(42.000000, 42.000000)">
                            <path d="M49.5,16.5 L45.9,4.4 C45,1.6 37.4,0 25,0 C12.7,0 5.1,1.6 4.1,4.5 L0.5,16.5 C0.1,17.4 0,18.4 0,19.4 L0,34.1 C0,35.4 0.8,36.5 2,36.9 L2,40.1 C2,41.8 3.3,43.1 5,43.1 L7,43.1 C8.7,43.1 10,41.8 10,40.1 L10,37.1 L40,37.1 L40,40.1 C40,41.8 41.3,43.1 43,43.1 L45,43.1 C46.7,43.1 48,41.8 48,40.1 L48,36.9 C49.2,36.5 50,35.4 50,34.1 L50,19.3 C50,18.3 49.8,17.3 49.5,16.5 Z M6,5.1 C6.2,4.4 10.1,2 25,2 C39.9,2 43.8,4.4 44,5 L47.6,17 L2.4,17 L6,5.1 Z M8,40 C8,40.6 7.6,41 7,41 L5,41 C4.4,41 4,40.6 4,40 L4,37 L8,37 L8,40 Z M45,41 L43,41 C42.4,41 42,40.6 42,40 L42,37 L46,37 L46,40 C46,40.6 45.6,41 45,41 Z M48,34 C48,34.6 47.6,35 47,35 L3,35 C2.4,35 2,34.6 2,34 L2,19.3 C2,19.2 2,19.1 2,19 L48,19 C48,19.1 48,19.2 48,19.3 L48,34 Z" id="Shape"></path>
                            <path d="M8,23 C5.8,23 4,24.8 4,27 C4,29.2 5.8,31 8,31 C10.2,31 12,29.2 12,27 C12,24.8 10.2,23 8,23 Z M8,29 C6.9,29 6,28.1 6,27 C6,25.9 6.9,25 8,25 C9.1,25 10,25.9 10,27 C10,28.1 9.1,29 8,29 Z" id="Shape"></path>
                            <path d="M42,23 C39.8,23 38,24.8 38,27 C38,29.2 39.8,31 42,31 C44.2,31 46,29.2 46,27 C46,24.8 44.2,23 42,23 Z M42,29 C40.9,29 40,28.1 40,27 C40,25.9 40.9,25 42,25 C43.1,25 44,25.9 44,27 C44,28.1 43.1,29 42,29 Z" id="Shape"></path>
                        </g>
                    </g>
                </g>
            </g>
        </g>
    </g>
</svg>