<?xml version="1.0" encoding="UTF-8"?>
<svg width="57.9999916px" height="58px" viewBox="0 0 57.9999916 58" version="1.1" xmlns="http://www.w3.org/2000/svg" xmlns:xlink="http://www.w3.org/1999/xlink">
    <title>car_wash</title>
    <g id="Page-1" stroke="none" stroke-width="1" fill="none" fill-rule="evenodd">
        <g id="Extra-Large" transform="translate(-572.000000, -2472.000000)" fill="#E8882F" fill-rule="nonzero">
            <g id="section" transform="translate(0.000000, 1851.000000)">
                <g id="services" transform="translate(246.000000, 259.000000)">
                    <g id="cart--" transform="translate(291.000000, 334.000000)">
                        <g id="car_wash" transform="translate(35.000000, 28.000000)">
                            <path d="M13.4041335,32.5212789 C11.6200022,32.2556203 9.82359157,32.0828948 8.02198763,32.0037837 C7.23200123,31.9542739 6.19070841,32.3715707 6.01037278,34.3896845 C5.97672504,34.8971801 6.02506225,35.4068376 6.15347783,35.8985545 C6.39838129,36.9494309 7.25415059,37.7406867 8.30936118,37.8919133 L16.0102742,38.9905593 C16.0487283,38.996988 16.0876461,39.0001425 16.1266198,39 C16.4325785,39.0002689 16.7163312,38.8381683 16.8744455,38.5727763 C17.0325598,38.3073843 17.0419353,37.9774746 16.8991544,37.7033046 C14.3663114,32.8218742 13.7171031,32.6191197 13.4041335,32.5212789 Z M8.55252342,36.1413883 C8.20639062,36.0877554 7.92750279,35.8257387 7.84863274,35.4800788 C7.76746084,35.1772661 7.73369765,34.863422 7.74857555,34.5500019 C7.7513344,34.2816506 7.81126105,34.0170682 7.92425735,33.7743484 L7.94868992,33.7743484 C9.93819912,33.9004805 12.1755244,34.0831952 12.7816848,34.1916453 C13.4367404,35.0797376 14.0225649,36.0181507 14.533849,36.9983793 L8.55252342,36.1413883 Z" id="Shape"></path>
                            <path d="M49.9828148,32.0036225 C48.1811794,32.0826821 46.3847374,32.2552953 44.6005748,32.5207811 C44.2875998,32.6185583 43.6372167,32.8211808 41.100839,37.7041481 C40.9580556,37.9781397 40.9674312,38.3078348 41.1255483,38.5730542 C41.2836653,38.8382735 41.567423,39.0002687 41.873387,39 C41.9123614,39.0001424 41.9512799,38.9969899 41.9897346,38.9905655 L49.6907824,37.8926341 C50.7460114,37.7415059 51.6017957,36.9507648 51.8467034,35.900572 C51.9747327,35.4091046 52.0230646,34.8998431 51.9898109,34.3926834 C51.8129626,32.3711703 50.7658342,31.9553229 49.9828148,32.0036225 Z M50.1561728,35.4776564 C50.0773013,35.8230913 49.7984086,36.0849377 49.4522698,36.1385356 L43.4708396,36.9914351 C43.9824497,36.0122877 44.5678619,35.074539 45.221871,34.1865268 C45.8385133,34.0769693 48.0782046,33.8943734 50.0665851,33.7695014 C50.1934563,34.0087891 50.2586828,34.2766071 50.2562317,34.5481844 C50.2711677,34.8614024 50.237403,35.1750515 50.1561728,35.4776564 L50.1561728,35.4776564 Z" id="Shape"></path>
                            <path d="M40.8367733,33.3660307 C40.6539951,33.1154947 40.3460332,32.9772952 40.0284838,33.0033068 C39.9464662,33.0101507 31.7577805,33.6876915 28.498472,33.6876915 C25.2391635,33.6876915 17.0492891,33.0033068 16.9684602,33.0033068 C16.6507296,32.9764392 16.3422968,33.1147291 16.1599118,33.3658303 C15.9775267,33.6169314 15.9490593,33.9424735 16.0852851,34.2192303 L18.4328906,38.9996577 C18.5727151,39.2826145 18.8619422,39.4701198 19.1876903,39.4889927 L28.4937173,40 L37.8140083,39.4889927 C38.1399276,39.4706042 38.4293879,39.2829476 38.5688081,38.9996577 L40.9164136,34.2192303 C41.0516041,33.9417667 41.0211982,33.6160223 40.8367733,33.3660307 L40.8367733,33.3660307 Z M37.1780747,37.8145314 L28.4960947,38.295882 L19.8188693,37.8145314 L18.3556276,34.8351766 C20.9219467,35.0359295 26.0094158,35.4054972 28.4996607,35.4054972 C30.9899055,35.4054972 36.0785633,35.0359295 38.646071,34.8351766 L37.1780747,37.8145314 Z" id="Shape"></path>
                            <path d="M34.5619455,5.81661633 L35.8526323,6.29924183 C36.7064735,6.61810505 37.380234,7.29073367 37.6999716,8.14347742 L38.1831039,9.43747332 C38.3121609,9.77615476 38.6372246,10 38.9999951,10 C39.362764,10 39.6878278,9.77615476 39.8168847,9.43747332 L40.3000171,8.14814047 C40.6201562,7.29606201 41.2932161,6.62370823 42.1461894,6.30390488 L43.4368762,5.82127938 C43.7759133,5.69235781 43.9999951,5.36763507 43.9999951,5.00524593 C43.9999951,4.64285679 43.7759133,4.31813405 43.4368762,4.18921248 L42.1461894,3.70658698 L42.1461894,3.70658698 C41.2925501,3.38718484 40.6192151,2.71413105 40.3000171,1.86118563 L39.8215527,0.56252668 C39.6924957,0.22384524 39.367432,0 39.0046623,0 C38.6418926,0 38.3168288,0.22384524 38.1877719,0.56252668 L37.6999716,1.85185953 C37.3807735,2.70480495 36.7074386,3.37785874 35.8537993,3.69726089 L34.5631125,4.17988638 C34.2240754,4.30880795 33.9999951,4.63353069 33.9999951,4.99591983 C33.9999951,5.35830897 34.2240754,5.68303171 34.5631125,5.81195328 L34.5619455,5.81661633 Z M39.0023283,3.18082829 C39.4352531,3.93779755 40.0630067,4.56529514 40.8204929,4.99825136 C40.062763,5.43088906 39.4349341,6.05846192 39.0023283,6.81567442 C38.5687194,6.05883181 37.9406341,5.43140541 37.1829967,4.99825136 C37.9406341,4.56509731 38.5687194,3.9376709 39.0023283,3.18082829 L39.0023283,3.18082829 Z" id="Shape"></path>
                            <path d="M44.5639475,11.8169246 L45.5413092,12.1825901 C46.1305965,12.403452 46.5954208,12.8679983 46.816078,13.4565966 L47.1822971,14.4324809 C47.3101048,14.773785 47.6366915,15 48.0016247,15 C48.366558,15 48.6931447,14.773785 48.8209524,14.4324809 L49.1860052,13.4565966 C49.4070522,12.8678424 49.8722949,12.403303 50.4619403,12.1825901 L51.439302,11.8169246 C51.7771,11.6871855 51.9999936,11.3631261 51.9999936,11.0017468 C51.9999936,10.6403675 51.7771,10.3163081 51.439302,10.186569 L50.4619403,9.81624535 L50.4619403,9.81624535 C49.8726412,9.59707196 49.407843,9.13297634 49.1883378,8.54456795 L48.8209524,7.5675191 C48.6931447,7.22621496 48.366558,7 48.0016247,7 C47.6366915,7 47.3101048,7.22621496 47.1822971,7.5675191 L46.816078,8.54456795 C46.5954034,9.13289344 46.1305253,9.59706884 45.5413092,9.81740989 L44.5627812,10.1830754 C44.2239427,10.3118618 43.9999936,10.636244 43.9999936,10.9982532 C43.9999936,11.3602624 44.2239427,11.6846446 44.5627812,11.813431 L44.5639475,11.8169246 Z M48.0010416,10.0130526 C48.2672351,10.3964495 48.6002575,10.7289685 48.9842348,10.9947596 C48.6010818,11.2610676 48.2682074,11.5930446 48.0010416,11.975302 C47.734604,11.5928271 47.4020686,11.2607944 47.0190147,10.9947596 C47.4026393,10.728938 47.7352731,10.3964125 48.0010416,10.0130526 L48.0010416,10.0130526 Z" id="Shape"></path>
                            <path d="M49.562715,5.81740058 L50.5399629,6.1832791 C51.1288696,6.40349091 51.5936534,6.86747174 51.8145835,7.45569739 L52.18076,8.43215026 C52.3085528,8.77365325 52.6351015,9 52.9999929,9 C53.3648831,9 53.6914318,8.77365325 53.8192246,8.43215026 L54.1854011,7.45569739 C54.4055281,6.86710024 54.8699808,6.40260043 55.4588555,6.18211388 L56.4372696,5.81623536 C56.7760687,5.68737393 56.9999929,5.36280269 56.9999929,5.00058261 C56.9999929,4.63836253 56.7760687,4.31379128 56.4372696,4.18492986 L55.4600217,3.81788612 L55.4600217,3.81788612 C54.8713032,3.59778907 54.4068435,3.13370733 54.1865673,2.54546782 L53.8203908,1.56784974 C53.692598,1.22634675 53.3660493,1 53.0011585,1 C52.6362677,1 52.309719,1.22634675 52.1819261,1.56784974 L51.8157497,2.54546782 C51.5950836,3.13386341 51.1302055,3.59793824 50.5411291,3.81788612 L49.562715,4.18492986 C49.2239159,4.31379128 48.9999929,4.63836253 48.9999929,5.00058261 C48.9999929,5.36280269 49.2239159,5.68737393 49.562715,5.81623536 L49.562715,5.81740058 Z M52.9994092,4.01830365 C53.2664036,4.40050971 53.5988046,4.73264024 53.9813219,4.99941739 C53.5988046,5.26619454 53.2664036,5.59832507 52.9994092,5.98053113 C52.7330027,5.59783339 52.4005059,5.2656072 52.0174966,4.99941739 C52.4002509,4.73292301 52.7326978,4.40074653 52.9994092,4.01830365 L52.9994092,4.01830365 Z" id="Shape"></path>
                            <path d="M55.0866676,51 C54.5849285,51 54.1781886,51.4175831 54.1781886,51.9326816 L54.1781886,55.8051205 C54.1781886,55.987122 54.0344739,56.1346633 53.8571927,56.1346633 L49.1379471,56.1346633 C48.960666,56.1346633 48.8169512,55.987122 48.8169512,55.8051205 L48.8169512,54.2083923 C48.8169512,53.6932938 48.4102113,53.275724 47.9084722,53.275724 C47.4067331,53.275724 46.9999932,53.6932938 46.9999932,54.2083923 L46.9999932,55.8051205 C47.0013282,57.0167508 47.9577412,57.9986294 49.1379471,58 L53.8620379,58 C55.0422438,57.9986294 55.9986568,57.0167508 55.9999932,55.8051205 L55.9999932,51.9326816 C55.9999932,51.6844583 55.903616,51.4464735 55.7321938,51.2714206 C55.5607715,51.0963677 55.3284497,50.9986894 55.0866676,51 Z" id="Path"></path>
                            <path d="M10.0934532,53.2744715 C9.5914439,53.2744715 9.18448494,53.6920421 9.18448494,54.2071416 L9.18448494,55.8038728 C9.1844862,55.9853901 9.04143125,56.1327313 8.86452811,56.1334162 L4.13789309,56.1334162 C3.96098995,56.1327313 3.817935,55.9853901 3.81793626,55.8038728 L3.81793626,51.9326701 C3.81793625,51.4175706 3.41097729,51 2.90896798,51 C2.40695867,51 1.99999971,51.4175706 1.99999971,51.9326701 L1.99999971,55.8051164 C2.00066469,57.0155786 2.95577112,57.9972585 4.13546917,58 L8.86210419,58 C10.0427491,57.9986282 10.9993298,57.0165477 10.9999997,55.8051164 L10.9999997,54.2083851 C11.0006681,53.6937701 10.5949891,53.2758433 10.0934532,53.2744715 Z" id="Path"></path>
                            <path d="M56.2413323,22.4557763 L53.2050023,21.9357883 C52.2911921,21.7686804 51.3827336,22.2523621 51.0188448,23.0997429 L50.854883,23.4608456 L48.7027323,18.4294806 C47.7135052,16.0837249 45.5674479,14.4143014 43.033297,14.0192123 C38.3893539,13.3205108 33.6976995,12.980052 29.0005946,13.0009025 C24.3034581,12.9804503 19.6118036,13.3213116 14.9678921,14.020416 C12.4340136,14.415271 10.2880173,16.0841914 9.29845686,18.4294806 L7.13901901,23.4656603 L6.98598798,23.1117796 C6.62493401,22.2607923 5.71670546,21.7717324 4.79983042,21.9345847 L1.76350048,22.4557763 C0.745886907,22.6230173 0,23.4953828 0,24.517673 L0,25.1086779 C0.000936965164,26.0901351 0.687930969,26.939952 1.6541926,27.1549268 L4.53749152,27.8000971 L3.25980388,29.7319968 C2.15271074,31.4012769 1.56366523,33.3555808 1.56553177,35.353163 L1.56553177,45.620518 C1.56553177,49.4951506 4.28851246,52 8.50536748,52 L49.4958217,52 C53.7126767,52 56.4356574,49.4963542 56.4356574,45.620518 L56.4356574,35.3483483 C56.4375239,33.3507661 55.8484784,31.3964622 54.7413853,29.7271821 L53.4636976,27.8013007 L56.3372803,27.1585378 C57.3064109,26.9461452 57.9972378,26.0959566 57.9999831,25.1122889 L57.9999831,24.5212841 C58.0028884,23.498989 57.2586417,22.6248788 56.2413323,22.4557763 Z M2.04648643,25.3879307 C1.91478432,25.3585778 1.82135675,25.2424618 1.82176841,25.1086779 L1.82176841,24.517673 C1.81975405,24.3765985 1.92377578,24.2559809 2.06470441,24.2360129 L5.1143942,23.7136176 C5.20286055,23.6978356 5.28948992,23.7492458 5.31722104,23.8339851 L6.06172915,25.5022799 L5.60749419,26.1883751 L2.04648643,25.3879307 Z M54.6138619,42.8159533 L5.69615502,42.8159533 C5.1930794,42.8159533 4.78525604,43.2201313 4.78525604,43.7187102 C4.78525604,44.217289 5.1930794,44.621467 5.69615502,44.621467 L54.6138619,44.621467 L54.6138619,45.620518 C54.6138619,48.4828592 52.7009716,50.1944862 49.4958217,50.1944862 L8.50536748,50.1944862 C5.3002176,50.1944862 3.38732723,48.4840628 3.38732723,45.620518 L3.38732723,35.3483483 C3.38605629,33.7024928 3.87118977,32.0923037 4.78282698,30.7166036 L7.65398057,26.3761485 L47.3946814,26.3761485 C47.897757,26.3761485 48.3055803,25.9719705 48.3055803,25.4733917 C48.3055803,24.9748128 47.897757,24.5706348 47.3946814,24.5706348 L8.64868226,24.5706348 L10.9757255,19.1396493 C11.7204626,17.3677925 13.3401043,16.1062663 15.2533071,15.8078746 C19.8025819,15.1211041 24.3988897,14.7862737 29.0005946,14.8064163 C33.6022047,14.7850787 38.1985119,15.1187018 42.747882,15.8042636 C44.6619036,16.103356 46.2817291,17.3663928 47.0254636,19.1396493 L49.6877177,25.3590424 C49.708371,25.4088015 49.7340042,25.4563839 49.7642332,25.5010762 L53.2183622,30.7214184 C54.1299994,32.0971184 54.6151329,33.7073075 54.6138619,35.353163 L54.6138619,42.8159533 Z M56.1781766,25.1086779 C56.1781015,25.2452292 56.0811765,25.3629135 55.946201,25.390338 L52.3973386,26.1847641 L51.9431036,25.4986688 L52.6924698,23.8135227 C52.7270982,23.7384803 52.8083897,23.6959737 52.8904385,23.7100065 L55.9340557,24.2324019 C56.0749843,24.2523699 56.179006,24.3729874 56.1769621,24.514062 L56.1781766,25.1086779 Z" id="Shape"></path>
                        </g>
                    </g>
                </g>
            </g>
        </g>
    </g>
</svg>