<?xml version="1.0" encoding="UTF-8"?>
<svg width="46px" height="46px" viewBox="0 0 46 46" version="1.1" xmlns="http://www.w3.org/2000/svg" xmlns:xlink="http://www.w3.org/1999/xlink">
    <title>car_paint</title>
    <g id="Page-1" stroke="none" stroke-width="1" fill="none" fill-rule="evenodd">
        <g id="Extra-Large" transform="translate(-285.000000, -2150.000000)" fill="#E8882F" fill-rule="nonzero">
            <g id="section" transform="translate(0.000000, 1851.000000)">
                <g id="services" transform="translate(246.000000, 259.000000)">
                    <g id="cart" transform="translate(0.000000, 4.000000)">
                        <g id="car_paint" transform="translate(39.000000, 36.000000)">
                            <path d="M44.2987374,37.3233856 C44.1596296,37.1842055 43.9709458,37.1059928 43.7741879,37.1059508 C43.3644275,37.1059508 43.032251,36.773702 43.032251,36.3638524 C43.0324058,36.1671582 42.9544831,35.9784483 42.8156054,35.8391888 L36.1485598,29.1603033 C36.0095736,29.020851 35.8208748,28.9423651 35.6240104,28.9421264 C35.2142499,28.9421264 34.8820734,28.6098776 34.8820734,28.200028 C34.8820314,28.0032273 34.8038357,27.8145025 34.6646859,27.6753644 L33.180812,26.1911676 C33.0429793,26.0532531 32.8564126,25.9751446 32.6614561,25.9737328 L29.2426106,25.9633434 L27.0167997,23.7452113 C26.8148036,23.5401596 26.7033724,23.2627035 26.7074157,22.9748667 C26.7114591,22.6870299 26.8306398,22.4128147 27.0383159,22.2135203 L35.3161066,13.213351 C36.461145,12.0682309 37.1044349,10.5150142 37.1044349,8.89545147 C37.1044349,7.2758887 36.461145,5.72267205 35.3161066,4.57755198 L32.5301333,1.79394091 C30.133573,-0.597980303 26.2534505,-0.597980303 23.8568902,1.79394091 L23.74189,1.90896616 L23.3071149,1.4740965 C22.3041801,0.518556462 20.7279781,0.518556462 19.7250432,1.4740965 L0.741844145,20.461426 C-0.247281382,21.450818 -0.247281382,23.054885 0.741844145,24.044277 L1.2708452,24.5733931 L0.124552593,26.2943193 C-0.0712841086,26.588535 -0.0324804222,26.9800718 0.217294713,27.2301054 L2.22571807,29.2389657 L2.22571807,42.6605572 C2.22571807,44.5048805 3.72051228,46 5.5644344,46 C7.40835651,46 8.90315072,44.5048805 8.90315072,42.6605572 L8.90315072,37.0948193 C8.90315072,36.2751201 9.56750371,35.6106225 10.3870246,35.6106225 C11.2065456,35.6106225 11.8708986,36.2751201 11.8708986,37.0948193 C11.8708986,38.7342178 13.1996045,40.0632129 14.8386464,40.0632129 C16.4776883,40.0632129 17.8063943,38.7342178 17.8063943,37.0948193 L17.8063943,20.333785 L28.1935117,9.94440754 C29.1826373,8.95501553 29.1826373,7.35094852 28.1935117,6.36155651 L27.0167997,5.18458846 L27.4471231,4.75417139 C27.8649951,4.3557468 28.5220283,4.3557468 28.9399003,4.75417139 L32.3528103,8.16782399 C32.5483678,8.36670045 32.6560976,8.63566164 32.6519147,8.9145769 C32.6477319,9.19349216 32.5319854,9.45910048 32.3305522,9.65202078 L24.0579551,18.6484796 C21.6617344,21.0502301 21.6617344,24.9389275 24.0579551,27.340678 L25.9677008,29.2419341 L25.9788299,32.642229 C25.9802414,32.8372278 26.0583329,33.0238351 26.1962174,33.1616978 L27.6800914,34.6458946 C27.8191991,34.7850747 28.0078829,34.8632874 28.2046408,34.8633294 C28.6144013,34.8633294 28.9465777,35.1955782 28.9465777,35.6054278 C28.9464229,35.802122 29.0243456,35.9908319 29.1632233,36.1300914 L35.8295269,42.8089769 C35.9679608,42.9502459 36.1570541,43.0303876 36.3548183,43.0316064 C36.7645788,43.0316064 37.0967553,43.3638552 37.0967553,43.7737048 C37.0967973,43.9705055 37.174993,44.1592303 37.3141428,44.2983684 L38.7980167,45.7825652 C38.9371245,45.9217453 39.1258083,46 39.3225662,46 L40.8064401,46 C41.0031979,46 41.1918817,45.9217453 41.3309895,45.7825652 L43.4774131,43.6371587 C43.506067,43.6159502 43.5330991,43.5926331 43.5582843,43.5674015 L45.7840952,41.3411063 C45.922701,41.2017256 46,41.0130306 46,40.8164427 L46,39.332246 C46,39.1354453 45.9217611,38.9467204 45.7826113,38.8075824 L44.2987374,37.3233856 Z M3.06188102,27.9766564 L1.69671701,26.6111953 L2.3407183,25.6464674 L4.02862489,27.3317729 L3.06188102,27.9766564 Z M16.3225203,37.0948193 C16.3225203,37.9145185 15.6581674,38.5790161 14.8386464,38.5790161 C14.0191255,38.5790161 13.3547725,37.9145185 13.3547725,37.0948193 C13.3547725,35.4554208 12.0260665,34.1264257 10.3870246,34.1264257 C8.74798277,34.1264257 7.4192768,35.4554208 7.4192768,37.0948193 L7.4192768,42.6605572 C7.4192768,43.6851813 6.58883557,44.5158032 5.5644344,44.5158032 C4.54003322,44.5158032 3.70959199,43.6851813 3.70959199,42.6605572 L3.70959199,29.3287596 L5.09849798,28.4018787 L5.62824098,28.931737 C6.61741776,29.9210777 8.22113584,29.9210777 9.21031263,28.931737 L16.3225203,21.8179818 L16.3225203,37.0948193 Z M27.1444129,7.41088363 C27.5538514,7.82086659 27.5538514,8.48509746 27.1444129,8.89508042 L8.16121376,27.8824099 C7.74352125,28.2726359 7.09503235,28.2726359 6.67733984,27.8824099 L1.79094301,22.9949499 C1.38150449,22.5849669 1.38150449,21.920736 1.79094301,21.5107531 L20.7741421,2.52342363 C21.1840359,2.11389602 21.8481223,2.11389602 22.258016,2.52342363 L27.1444129,7.41088363 Z M25.107054,26.2898667 C24.2323057,25.4101064 23.7430705,24.2186315 23.7470814,22.9778739 C23.7511418,21.7371163 24.2481174,20.5488505 25.1285701,19.6748017 L33.3989415,10.6761166 C34.3799613,9.69148214 34.3799613,8.09867869 33.3989415,7.11404428 L29.9860314,3.70039168 C28.9819233,2.73918319 27.3991646,2.73918319 26.3950565,3.70039168 L25.9647331,4.13080874 L24.7909888,2.95829329 L24.9059891,2.84326803 C26.7229272,1.03034081 29.6640963,1.03034081 31.4810344,2.84326803 L34.2640399,5.6298475 C35.1344194,6.50068446 35.6215192,7.68283052 35.6173675,8.91418329 C35.6131625,10.1455361 35.1180512,11.3243477 34.2417818,12.1892552 L25.9677008,21.1886824 C24.9722407,22.1858828 24.9722407,23.8010486 25.9677008,24.798249 L27.884124,26.7054418 L26.7096378,27.8838941 L25.107054,26.2898667 Z M27.4575103,30.8567402 L27.4515748,29.2389657 L29.2396428,27.4475402 L30.8592912,27.4519928 L27.4575103,30.8567402 Z M29.1639653,33.6025043 C28.9665941,33.506727 28.7560384,33.4409453 28.5392544,33.4073324 L27.7698657,32.642229 L32.6503271,27.7607057 L33.4226834,28.5332302 C33.4560895,28.74712 33.5208396,28.9549153 33.6148451,29.1499139 L29.1639653,33.6025043 Z M37.3141428,41.7655866 C37.117066,41.6695714 36.9067559,41.6035382 36.6901738,41.5696726 L30.4081936,35.2774203 C30.374588,35.0605891 30.3088206,34.8499876 30.2130641,34.6525735 L34.6646859,30.1999831 C34.8641768,30.2977481 35.0772929,30.3647993 35.2968162,30.3988655 L41.5780545,36.6911178 C41.6113757,36.9051214 41.6763907,37.1129646 41.7709581,37.3078015 L37.3141428,41.7655866 Z M44.5161249,40.5084719 L42.5870888,42.4379277 C42.5582601,42.4589166 42.5312114,42.4822481 42.5062177,42.507685 L40.4992782,44.5158032 L39.6297281,44.5158032 L38.5561453,43.4412447 C38.5222871,43.2246155 38.4562682,43.0142597 38.3602739,42.81714 L42.8118957,38.3645496 C43.0109957,38.4626393 43.2239181,38.5297082 43.443284,38.563432 L44.5161249,39.6394747 L44.5161249,40.5084719 Z" id="Shape"></path>
                        </g>
                    </g>
                </g>
            </g>
        </g>
    </g>
</svg>