<?xml version="1.0" encoding="UTF-8"?>
<svg width="58px" height="58px" viewBox="0 0 58 58" version="1.1" xmlns="http://www.w3.org/2000/svg" xmlns:xlink="http://www.w3.org/1999/xlink">
    <title>dollar</title>
    <g id="Page-1" stroke="none" stroke-width="1" fill="none" fill-rule="evenodd">
        <g id="Extra-Large" transform="translate(-1158.000000, -2477.000000)" fill="#E8882F" fill-rule="nonzero">
            <g id="section" transform="translate(0.000000, 1851.000000)">
                <g id="services" transform="translate(246.000000, 259.000000)">
                    <g id="cart-" transform="translate(876.000000, 333.000000)">
                        <g id="dollar" transform="translate(36.000000, 34.000000)">
                            <path d="M29,58 C21.2538281,58 13.9712031,54.9835469 8.49382813,49.5061719 C3.01645312,44.0287969 0,36.7461719 0,29 C0,21.2538281 3.01656641,13.9713164 8.49382813,8.49382813 C13.9710898,3.01633984 21.2538281,0 29,0 C36.7461719,0 44.0287969,3.01645312 49.5061719,8.49382813 C54.9835469,13.9712031 58,21.2538281 58,29 C58,36.7461719 54.9834336,44.0286836 49.5061719,49.5061719 C44.0289102,54.9836602 36.7461719,58 29,58 Z M29,3.625 C15.0081797,3.625 3.625,15.0081797 3.625,29 C3.625,42.9918203 15.0081797,54.375 29,54.375 C42.9918203,54.375 54.375,42.9918203 54.375,29 C54.375,15.0081797 42.9918203,3.625 29,3.625 Z" id="Shape"></path>
                            <path d="M29,27.2 C26.5493333,27.2 24.5555556,25.1813 24.5555556,22.7 C24.5555556,20.2187 26.5493333,18.2 29,18.2 C31.4506667,18.2 33.4444444,20.2187 33.4444444,22.7 C33.4444444,23.69405 34.2403333,24.5 35.2222222,24.5 C36.2041111,24.5 37,23.69405 37,22.7 C37,18.8523875 34.3357778,15.6251 30.7777778,14.804075 L30.7777778,12.8 C30.7777778,11.80595 29.9818889,11 29,11 C28.0181111,11 27.2222222,11.80595 27.2222222,12.8 L27.2222222,14.804075 C23.6642222,15.6251 21,18.8523875 21,22.7 C21,27.1663625 24.5887778,30.8 29,30.8 C31.4506667,30.8 33.4444444,32.8187 33.4444444,35.3 C33.4444444,37.7813 31.4506667,39.8 29,39.8 C26.5493333,39.8 24.5555556,37.7813 24.5555556,35.3 C24.5555556,34.30595 23.7596667,33.5 22.7777778,33.5 C21.7958889,33.5 21,34.30595 21,35.3 C21,39.1476125 23.6642222,42.3749 27.2222222,43.195925 L27.2222222,45.2 C27.2222222,46.19405 28.0181111,47 29,47 C29.9818889,47 30.7777778,46.19405 30.7777778,45.2 L30.7777778,43.195925 C34.3357778,42.3749 37,39.1476125 37,35.3 C37,30.8336375 33.4112222,27.2 29,27.2 Z" id="Path"></path>
                        </g>
                    </g>
                </g>
            </g>
        </g>
    </g>
</svg>