<?xml version="1.0" encoding="UTF-8"?>
<svg width="55.748513px" height="53.684242px" viewBox="0 0 55.748513 53.684242" version="1.1" xmlns="http://www.w3.org/2000/svg" xmlns:xlink="http://www.w3.org/1999/xlink">
    <title>key2</title>
    <g id="Page-1" stroke="none" stroke-width="1" fill="none" fill-rule="evenodd">
        <g id="Extra-Large" transform="translate(-1451.633299, -2476.519178)" stroke="#E8882F">
            <g id="section" transform="translate(0.000000, 1851.000000)">
                <g id="services" transform="translate(246.000000, 259.000000)">
                    <g id="cart" transform="translate(1168.000000, 333.000000)">
                        <g id="key2" transform="translate(38.069473, 33.951397)">
                            <g id="Artboard11" transform="translate(0.000000, 0.000000)">
                                <g id="Group" transform="translate(24.574278, 37.514744) rotate(45.889537) translate(-24.574278, -37.514744) translate(19.932874, 21.389777)" stroke-width="1.12259567">
                                    <path d="M0,-2.27373675e-13 L0,8.26916775 L1.85656186,13.065321 L1.85656186,27.4537808 L4.64140464,32.2499341 L7.42624742,27.4537808 L7.42624742,13.065321 L9.28280928,8.26916775 L9.28280928,0.252517469 C6.29578691,1.24759937 3.19885608,1.28381032 0,-2.27373675e-13 Z" id="Path"></path>
                                </g>
                                <path d="M21.0845934,13.5175302 C19.7688746,20.4650097 31.0951899,28.7952256 39.6806398,17.5732684" id="Path" stroke-width="1.12398922"></path>
                                <g id="Group" transform="translate(39.578147, 22.681502) rotate(46.296924) translate(-39.578147, -22.681502) translate(29.989300, 10.690430)" fill="#E8882F" stroke-width="0.616857525">
                                    <path d="M18.1344449,2.01356592 C21.185447,4.97285838 16.5733509,22.4171189 16.5733509,22.4171189 C12.4718885,24.5334531 9.87196451,24.1956286 5.64569274,23.2035301 C4.09349696,22.839181 4.87412202,23.22714 3.30405172,22.4171189 C3.30405172,22.4171189 -2.15673321,4.86063884 0.962410692,2.01356592 C3.93668507,-0.701175389 15.3975348,-0.641033487 18.1344449,2.01356592 Z M13.8687555,4.06295707 C12.2506035,3.4619267 5.83622426,3.60611181 4.24718667,4.2793319 C3.27766923,4.69002627 3.35299201,7.73763697 4.33429571,8.10208329 C5.95244771,8.70321082 12.3668269,8.55892856 13.9558645,7.88580563 C14.925382,7.47501409 14.8500592,4.42750055 13.8687555,4.06295707 Z" id="Shape"></path>
                                </g>
                                <g id="Group" transform="translate(17.330809, 17.245157) rotate(-134.181962) translate(-17.330809, -17.245157) translate(7.226192, 2.898382)" fill="#E8882F" stroke-width="0.616857873">
                                    <path d="M18.4922157,2.01356637 C21.5432212,4.97285951 19.5984862,23.0551724 19.5984862,23.0551724 C17.6104308,26.8803536 10.163692,28.6935498 10.163692,28.6935498 C10.163692,28.6935498 2.38022481,27.1758166 1.58773457,24.5206336 C1.58773457,24.5206336 -1.79898455,4.86063994 1.32016276,2.01356637 C4.29444039,-0.701175548 15.7553027,-0.641033633 18.4922157,2.01356637 Z M4.81249001,21.016274 C6.64154781,21.8504881 13.822432,21.5848532 15.5839724,20.6178217 C17.3454348,19.6507902 17.210322,16.0482021 15.3813422,15.2138909 C13.5523625,14.3796768 6.3714002,14.6453117 4.60993784,15.6123432 C2.84847548,16.5794718 2.98351026,20.18206 4.81249001,21.016274 Z M14.7851598,5.21255273 C13.0802871,4.42108901 6.78540278,4.32587241 5.16209739,5.34906225 C2.96727486,6.73252061 3.24312047,9.46786041 5.26333445,10.4722012 C6.95314252,11.3121477 13.0733402,11.6451143 14.6299088,10.4722012 C16.4938571,9.0676592 16.6945359,6.09903873 14.7851598,5.21255273 Z" id="Shape"></path>
                                </g>
                                <path d="M21.0845934,12.1656175 C24.0474447,-0.0702741715 42.6829613,3.95044946 40.1960662,16.2213557" id="Path" stroke-width="1.12398922"></path>
                                <line x1="12.9183443" y1="48.6672611" x2="23.8066764" y2="38.5279157" id="Path" stroke-width="1.12398922"></line>
                            </g>
                        </g>
                    </g>
                </g>
            </g>
        </g>
    </g>
</svg>