<?xml version="1.0" encoding="UTF-8"?>
<svg width="190px" height="34px" viewBox="0 0 190 34" version="1.1" xmlns="http://www.w3.org/2000/svg" xmlns:xlink="http://www.w3.org/1999/xlink">
    <title>logo white</title>
    <g id="Page-1" stroke="none" stroke-width="1" fill="none" fill-rule="evenodd">
        <g id="Extra-Large" transform="translate(-240.000000, -29.000000)" fill="#FFFFFE">
            <g id="logo-white" transform="translate(240.000000, 29.000000)">
                <polygon id="Fill-1" points="103 26 107 26 107 5 103 5"></polygon>
                <path d="M144.740406,11.3000547 C144.740406,10.1598154 143.759659,9.19967156 142.595512,9.19967156 L123.290347,9.19967156 L123.290347,15.5002737 L142.595512,15.5002737 C143.759659,15.5002737 144.740406,14.5696895 144.740406,13.3998905 L144.740406,11.3000547 Z M144.433993,19.3999687 L148.90774,26 L143.759659,26 L139.469871,19.6999453 L123.290347,19.6999453 L123.290347,26 L119,26 L119,5 L142.595512,5 C146.15002,5 149,7.81966999 149,11.3000547 L149,13.3998905 C149,16.2502151 147.100013,18.6500274 144.433993,19.3999687 L144.433993,19.3999687 Z" id="Fill-2"></path>
                <path d="M166.435241,21.770111 L183.564759,21.770111 C184.790412,21.770111 185.740406,20.8405975 185.740406,19.7003285 L185.740406,11.300219 C185.740406,10.15995 184.790412,9.19978103 183.564759,9.19978103 L166.435241,9.19978103 C165.240341,9.19978103 164.290347,10.15995 164.290347,11.300219 L164.290347,19.7003285 C164.290347,20.8405975 165.240341,21.770111 166.435241,21.770111 M183.564759,26 L166.435241,26 C162.880734,26 160,23.1501486 160,19.7003285 L160,11.300219 C160,7.8197435 162.880734,5 166.435241,5 L183.564759,5 C187.15002,5 190,7.8197435 190,11.300219 L190,19.7003285 C190,23.1501486 187.15002,26 183.564759,26" id="Fill-3"></path>
                <path d="M102.857476,31.1999456 L102.857476,32.8000544 C102.857476,33.0169906 103.053204,33.1942368 103.286214,33.1942368 L108,33.1942368 L108,34 L103.286214,34 C102.576117,34 102,33.4573875 102,32.8000544 L102,31.1999456 C102,30.5366318 102.576117,30 103.286214,30 L108,30 L108,30.7997825 L103.286214,30.7997825 C103.053204,30.7997825 102.857476,30.9830094 102.857476,31.1999456" id="Fill-4"></path>
                <path d="M112.28688,33.1942368 L115.712536,33.1942368 C115.957434,33.1942368 116.148105,33.0169906 116.148105,32.8000544 L116.148105,31.1999456 C116.148105,30.9830094 115.957434,30.7997825 115.712536,30.7997825 L112.28688,30.7997825 C112.047813,30.7997825 111.857726,30.9830094 111.857726,31.1999456 L111.857726,32.8000544 C111.857726,33.0169906 112.047813,33.1942368 112.28688,33.1942368 M115.712536,34 L112.28688,34 C111.576093,34 111,33.4568438 111,32.8000544 L111,31.1999456 C111,30.5366318 111.576093,30 112.28688,30 L115.712536,30 C116.429738,30 117,30.5366318 117,31.1999456 L117,32.8000544 C117,33.4568438 116.429738,34 115.712536,34" id="Fill-5"></path>
                <path d="M125.148105,31.1999456 C125.148105,30.9830094 124.952187,30.7997825 124.71895,30.7997825 L120.858309,30.7997825 L120.858309,31.9997282 L124.71895,31.9997282 C124.952187,31.9997282 125.148105,31.822482 125.148105,31.6001087 L125.148105,31.1999456 Z M125.08688,32.7429659 L125.981924,34 L124.952187,34 L124.093878,32.8000544 L120.858309,32.8000544 L120.858309,34 L120,34 L120,30 L124.71895,30 C125.429738,30 126,30.5366318 126,31.1999456 L126,31.6001087 C126,32.1427212 125.619825,32.5999728 125.08688,32.7429659 L125.08688,32.7429659 Z" id="Fill-6"></path>
                <path d="M134.143107,31.1999456 C134.143107,30.9830094 133.947379,30.7997825 133.714369,30.7997825 L129.857476,30.7997825 L129.857476,31.9997282 L133.714369,31.9997282 C133.947379,31.9997282 134.143107,31.822482 134.143107,31.6001087 L134.143107,31.1999456 Z M135,31.1999456 L135,31.6001087 C135,32.2628789 134.418641,32.8000544 133.714369,32.8000544 L129.857476,32.8000544 L129.857476,34 L129,34 L129,30 L133.714369,30 C134.418641,30 135,30.5366318 135,31.1999456 L135,31.1999456 Z" id="Fill-7"></path>
                <path d="M139.28688,33.1942368 L142.712536,33.1942368 C142.957434,33.1942368 143.148105,33.0169906 143.148105,32.8000544 L143.148105,31.1999456 C143.148105,30.9830094 142.957434,30.7997825 142.712536,30.7997825 L139.28688,30.7997825 C139.047813,30.7997825 138.857726,30.9830094 138.857726,31.1999456 L138.857726,32.8000544 C138.857726,33.0169906 139.047813,33.1942368 139.28688,33.1942368 M142.712536,34 L139.28688,34 C138.576093,34 138,33.4568438 138,32.8000544 L138,31.1999456 C138,30.5366318 138.576093,30 139.28688,30 L142.712536,30 C143.429738,30 144,30.5366318 144,31.1999456 L144,32.8000544 C144,33.4568438 143.429738,34 142.712536,34" id="Fill-8"></path>
                <path d="M151.148105,31.1999456 C151.148105,30.9830094 150.952187,30.7997825 150.71895,30.7997825 L146.858309,30.7997825 L146.858309,31.9997282 L150.71895,31.9997282 C150.952187,31.9997282 151.148105,31.822482 151.148105,31.6001087 L151.148105,31.1999456 Z M151.08688,32.7429659 L151.981924,34 L150.952187,34 L150.093878,32.8000544 L146.858309,32.8000544 L146.858309,34 L146,34 L146,30 L150.71895,30 C151.429738,30 152,30.5366318 152,31.1999456 L152,31.6001087 C152,32.1427212 151.619825,32.5999728 151.08688,32.7429659 L151.08688,32.7429659 Z" id="Fill-9"></path>
                <polygon id="Fill-10" points="165.571512 34 165.571512 30.7997825 163 30.7997825 163 30 169 30 169 30.7997825 166.428488 30.7997825 166.428488 34"></polygon>
                <polygon id="Fill-11" points="171 34 172 34 172 30 171 30"></polygon>
                <path d="M176.28688,33.1942368 L179.712536,33.1942368 C179.957434,33.1942368 180.148105,33.0169906 180.148105,32.8000544 L180.148105,31.1999456 C180.148105,30.9830094 179.957434,30.7997825 179.712536,30.7997825 L176.28688,30.7997825 C176.047813,30.7997825 175.857726,30.9830094 175.857726,31.1999456 L175.857726,32.8000544 C175.857726,33.0169906 176.047813,33.1942368 176.28688,33.1942368 M179.712536,34 L176.28688,34 C175.576093,34 175,33.4568438 175,32.8000544 L175,31.1999456 C175,30.5366318 175.576093,30 176.28688,30 L179.712536,30 C180.429738,30 181,30.5366318 181,31.1999456 L181,32.8000544 C181,33.4568438 180.429738,34 179.712536,34" id="Fill-12"></path>
                <polygon id="Fill-13" points="184.862464 34 184 34 184 30 185.005626 30 189.143938 33.0859163 189.143938 30 190 30 190 34 188.994374 34 184.862464 30.9140837"></polygon>
                <path d="M87.1334036,25.8532707 L82.1202565,25.8532707 L61.5224584,9.32467063 L61.5224584,25.8532707 L57.2230909,25.8532707 L57.2230909,4.42691461 L62.2367943,4.42691461 L82.8646346,20.9560732 L82.8646346,4.42691461 L87.1334036,4.42691461 L87.1334036,25.8532707 Z M0,0 L0,33.9994415 L95,34 L95,0 L0,0 Z" id="Fill-14"></path>
                <path d="M158.884702,32 L158.170249,30.8002175 L157.829751,30.8002175 L157.115298,32 L158.884702,32 Z M161,34 L160.081572,34 L159.361184,32.8002175 L156.638816,32.8002175 L155.918428,34 L155,34 L157.38025,30.0005436 L158.61921,30 L161,34 Z" id="Fill-15"></path>
            </g>
        </g>
    </g>
</svg>