<?xml version="1.0" encoding="UTF-8"?>
<svg width="58px" height="31px" viewBox="0 0 58 31" version="1.1" xmlns="http://www.w3.org/2000/svg" xmlns:xlink="http://www.w3.org/1999/xlink">
    <title>speedometr</title>
    <g id="Page-1" stroke="none" stroke-width="1" fill="none" fill-rule="evenodd">
        <g id="Extra-Large" transform="translate(-285.000000, -2497.000000)" fill="#E8882F" fill-rule="nonzero">
            <g id="section" transform="translate(0.000000, 1851.000000)">
                <g id="services" transform="translate(246.000000, 259.000000)">
                    <g id="cart--" transform="translate(0.000000, 334.000000)">
                        <g id="speedometr" transform="translate(39.000000, 53.000000)">
                            <path d="M28.9619921,0 C12.9986894,0 0,12.9926471 0,28.9485294 L0,29.8602941 L20.5242464,29.8602941 L20.5242464,28.9485294 C20.5242464,24.3137255 24.3250328,20.5906863 28.9619921,20.5906863 C30.938401,20.5906863 32.7627785,21.2745098 34.2070773,22.4901961 L29.4180865,27.2769608 C29.266055,27.2009804 29.1140236,27.2009804 28.9619921,27.2009804 C27.897772,27.2009804 27.061599,28.0367647 27.061599,29.1004902 C27.061599,30.1642157 27.897772,31 28.9619921,31 C30.0262123,31 30.8623853,30.1642157 30.8623853,29.1004902 C30.8623853,28.9485294 30.7863696,28.7965686 30.7863696,28.6446078 L35.5753604,23.8578431 C36.7155963,25.3014706 37.4757536,27.125 37.4757536,29.1004902 L37.4757536,29.8602941 L58,29.8602941 L58,28.9485294 C57.9239843,12.9926471 44.9252949,0 28.9619921,0 Z M39.2241153,28.0367647 C38.9960682,25.9093137 38.1598952,24.0098039 36.8676278,22.4142157 L46.1415465,13.1446078 L44.8492792,11.8529412 L35.4993447,21.122549 C33.750983,19.6029412 31.4705111,18.6911765 28.9619921,18.6911765 C23.6408912,18.6911765 19.231979,22.7941176 18.6998689,28.0367647 L1.90039318,28.0367647 C2.43250328,13.5245098 14.3669725,1.8995098 28.9619921,1.8995098 C43.5570118,1.8995098 55.491481,13.5245098 56.0235911,28.0367647 L39.2241153,28.0367647 Z" id="Shape"></path>
                            <rect id="Rectangle" x="28" y="6" width="2" height="9"></rect>
                            <polygon id="Rectangle" transform="translate(16.094875, 15.754215) rotate(-45.000000) translate(-16.094875, -15.754215) " points="15.1451295 11.0814659 17.044621 11.0814659 17.044621 20.4269645 15.1451295 20.4269645"></polygon>
                        </g>
                    </g>
                </g>
            </g>
        </g>
    </g>
</svg>