<?xml version="1.0" encoding="UTF-8"?>
<svg width="49px" height="49px" viewBox="0 0 49 49" version="1.1" xmlns="http://www.w3.org/2000/svg" xmlns:xlink="http://www.w3.org/1999/xlink">
    <title>tools</title>
    <g id="Page-1" stroke="none" stroke-width="1" fill="none" fill-rule="evenodd">
        <g id="Extra-Large" transform="translate(-1163.000000, -2155.000000)" fill="#E8882F" fill-rule="nonzero">
            <g id="section" transform="translate(0.000000, 1851.000000)">
                <g id="services" transform="translate(246.000000, 259.000000)">
                    <g id="cart-" transform="translate(876.000000, 10.000000)">
                        <g id="tools" transform="translate(41.000000, 35.000000)">
                            <path d="M46.4952691,34.1714176 C44.8500945,32.5237974 42.7042146,31.5925338 40.3437467,31.5925338 C38.2693961,31.5925338 36.3381042,32.3088904 34.8359882,33.669968 L25.680234,24.5006031 L40.9159813,9.24220672 L41.488216,9.81529203 L47.0675037,4.22771027 L44.8500945,2.0070047 L39.2708067,7.59458646 L39.8430414,8.16767177 L24.5357647,23.3544324 L15.3800104,14.1850675 C16.6675383,12.6090829 17.454361,10.67492 17.454361,8.66912141 C17.454361,6.37678018 16.5244797,4.15607461 14.8793051,2.50845435 C12.7334251,0.359384439 9.51460528,-0.500243524 6.5103734,0.287748776 L5.15131612,0.645927093 L10.3729572,5.87533053 L5.86660943,10.3883773 L0.644968305,5.1589739 L0.287321653,6.52005151 C-0.499500982,9.52874938 0.358850983,12.7523542 2.5047309,14.9014241 C4.1499055,16.5490444 6.29578541,17.480308 8.65625331,17.480308 L8.65625331,17.480308 C10.7306039,17.480308 12.6618958,16.7639514 14.1640118,15.4028738 L23.3912954,24.5006031 L13.1626011,34.744503 L10.3729572,31.9507121 L1.43179094,40.90517 C0.501909644,41.8364336 0.0727336615,42.9826043 0.0727336615,44.2720462 C0.0727336615,45.5614881 0.573438974,46.7076588 1.43179094,47.6389224 C2.36167223,48.570186 3.50614152,49 4.79366947,49 C6.08119742,49 7.2256667,48.4985504 8.155548,47.6389224 L17.0967143,38.6844644 L14.3070704,35.8906736 L24.5357647,25.6467737 L33.691519,34.8161386 C32.403991,36.3921232 31.6171684,38.3262861 31.6171684,40.3320847 C31.6171684,42.6244259 32.5470497,44.8451315 34.1922243,46.4927518 C35.8373989,48.140372 37.9832788,49 40.2722174,49 C41.05904,49 41.7743333,48.9283643 42.5611559,48.7134573 L43.9202132,48.355279 L38.6985721,43.1258756 L43.1333906,38.6128288 L48.3550317,43.8422322 L48.7126783,42.4811546 C49.499501,39.5440924 48.641149,36.3204875 46.4952691,34.1714176 Z M8.72778264,15.7610521 L8.72778264,15.7610521 C6.79649072,15.7610521 5.00825746,15.0446955 3.72072951,13.6836179 C2.2901429,12.2509046 1.5748496,10.3167417 1.64637893,8.23930743 L5.93813876,12.5374472 L12.6618958,5.80369487 L8.37013599,1.50555506 C10.3729572,1.36228373 12.3757785,2.15027603 13.7348358,3.5829893 C15.093893,4.94406691 15.8091864,6.7349585 15.8091864,8.59748575 C15.8091864,10.5316487 15.093893,12.3225403 13.7348358,13.6119822 C12.3757785,15.0446955 10.5875452,15.7610521 8.72778264,15.7610521 Z M7.01107871,46.4927518 C5.7950801,47.7105581 3.72072951,47.7105581 2.57626023,46.4927518 C2.00402558,45.9196665 1.64637893,45.1316742 1.64637893,44.2720462 C1.64637893,43.4124182 2.00402558,42.6244259 2.57626023,42.0513406 L10.3729572,34.2430533 L14.8793051,38.7561001 L7.01107871,46.4927518 Z M43.1333906,36.3921232 L36.4096335,43.1258756 L40.7013933,47.4240154 C40.5583347,47.4240154 40.415276,47.4240154 40.2722174,47.4240154 C38.4124548,47.4240154 36.6242215,46.7076588 35.2651642,45.3465812 C33.906107,43.9855036 33.1908136,42.194612 33.1908136,40.3320847 C33.1908136,38.3979218 33.906107,36.6070302 35.2651642,35.3175883 C36.6242215,33.9565107 38.4124548,33.240154 40.2722174,33.240154 C42.2035093,33.240154 43.9917425,33.9565107 45.2792705,35.3175883 C46.7098571,36.7503015 47.4251504,38.6844644 47.3536211,40.7618987 L43.1333906,36.3921232 Z" id="1631672079"></path>
                        </g>
                    </g>
                </g>
            </g>
        </g>
    </g>
</svg>