<?xml version="1.0" encoding="utf-8"?><svg viewBox="0 0 800 800" xmlns="http://www.w3.org/2000/svg" xmlns:xlink="http://www.w3.org/1999/xlink"><style>:root>svg{display:none}:root>svg:target{display:block}</style><svg viewBox="0 0 66 28" id="bumper" xmlns="http://www.w3.org/2000/svg"><path d="M63.075 0h-1.897a2.886 2.886 0 0 0-2.75 1.933 1.546 1.546 0 0 1-1.45 1.024H8.702a1.57 1.57 0 0 1-1.21-1.1A2.893 2.893 0 0 0 4.813 0H2.9A2.905 2.905 0 0 0 0 2.89v12.026a9.004 9.004 0 0 0 1.237 4.548v5.211a3.29 3.29 0 0 0 .963 2.35A3.331 3.331 0 0 0 4.557 28h6.716c1.834 0 3.32-1.477 3.32-3.299v-.682h10.559v2.5c0 .376.307.682.687.682h14.435c.38 0 .688-.306.688-.683v-2.5h10.537v.683c0 1.822 1.487 3.299 3.32 3.299h6.716c1.834 0 3.32-1.477 3.32-3.299v-5.415c1.375-2.438 1.128-4.275 1.128-7.56V2.889A2.905 2.905 0 0 0 63.075 0Zm-4.906 4.48c-.789 2.339-.576 1.698-.988 2.937a1.776 1.776 0 0 1-1.634 1.212H41.852c-.83 0-1.617.374-2.156 1.021l-.85 1.029a1.47 1.47 0 0 1-1.12.521h-8.059a1.46 1.46 0 0 1-1.112-.521l-.851-1.029a2.82 2.82 0 0 0-2.164-1.02H11.613a1.732 1.732 0 0 1-1.456-.789c-.178-.254-.116-.12-1.208-3.36.412.106 48.83.113 49.22 0ZM2.237 2.627c0-.83.676-1.503 1.512-1.507h1.893c.638.01 1.2.416 1.41 1.014 1.218 3.52 1.525 4.33 1.783 5.1A3.11 3.11 0 0 0 11.77 9.31h13.816c.426.002.83.187 1.11.506l.844.987c.535.62 1.316.975 2.138.973h7.967a2.828 2.828 0 0 0 2.145-.973l.844-.987a1.476 1.476 0 0 1 1.103-.506H55.35a3.117 3.117 0 0 0 2.941-2.074c.095-.277 1.73-4.926 1.784-5.108.213-.59.77-.99 1.403-1.007h1.886c.403 0 .789.159 1.074.441a1.5 1.5 0 0 1 .444 1.066v8.742c.002 3.445-2.318 6.465-5.665 7.378-1.403.392-2.083.277-8.11.277-2.233-4.202.184.372-2.185-4.121a2.945 2.945 0 0 0-2.608-1.567H20.915a2.945 2.945 0 0 0-2.615 1.567c-1.437 2.703-.626 1.196-2.186 4.121-6.605 0-6.918.088-8.218-.277-3.345-.915-5.661-3.935-5.659-7.378V2.627ZM16.78 19.04l.803-1.12h30.834l.803 1.12H16.78Zm2.237-2.262.35-.488c.277-.375.823-.61 1.418-.61h25.553c.594-.001 1.14.234 1.412.61l.35.488c.034.05-.014 0-29.083 0Zm-5.593 8.078c0 .537-.195 1.052-.541 1.431-.346.38-.816.593-1.306.593H5.202c-1.02 0-1.846-.906-1.846-2.024V21.28c1.635 1.831 3.874 2.862 6.212 2.86h3.856v.716ZM9.75 22.4c-3.521-.001-6.602-2.298-7.513-5.6 1.708 2.392 4.515 3.82 7.513 3.82h15.979v1.78H9.749Zm30.521 3.36H26.847v-4.48h13.424v4.48Zm23.492-.856c0 1.091-.827 1.976-1.847 1.976h-6.375c-1.02 0-1.846-.885-1.846-1.976v-.698h3.745c2.395.001 4.684-1.058 6.323-2.926v3.624Zm-6.43-2.504H41.39v-1.78h15.944c3.011-.001 5.831-1.428 7.547-3.82-.912 3.303-4.01 5.6-7.547 5.6Z"/><path d="M7.636 17.659c1.224.328 2.047.254 4.15.254.887.002 1.72-.366 2.239-.989.518-.623.657-1.424.373-2.15l-.766-1.958c-.378-.966-1.425-1.617-2.604-1.616H6.105c-.935.004-1.805.417-2.311 1.099-.506.681-.578 1.538-.193 2.276.765 1.486 2.237 2.61 4.035 3.084Zm-.81-5.339h4.645c.528.011.993.34 1.163.825l.724 2.063c.128.366.067.768-.163 1.083-.23.315-.602.504-1 .509h-2.029c-1.919.02-3.669-1.062-4.456-2.758a1.179 1.179 0 0 1 .075-1.154 1.26 1.26 0 0 1 1.04-.568Zm47.254 5.34c.716.322 1.103.254 3.416.254 2.596.022 4.96-1.29 6.021-3.338.386-.739.313-1.595-.193-2.277-.506-.682-1.376-1.095-2.313-1.099h-4.919c-1.18 0-2.228.65-2.606 1.617l-.759 1.957c-.448 1.12.13 2.353 1.353 2.886Zm-.313-2.439.744-2.076c.17-.492.64-.824 1.172-.825h4.604c.422 0 .815.21 1.042.558.228.347.26.783.084 1.158-.783 1.708-2.534 2.796-4.45 2.763h-2.01a1.243 1.243 0 0 1-1.02-.492 1.182 1.182 0 0 1-.173-1.099l.007.013Z"/></svg><svg viewBox="0 0 50 43.1" id="car" xmlns="http://www.w3.org/2000/svg"><path d="M49.5 16.5 45.9 4.4C45 1.6 37.4 0 25 0 12.7 0 5.1 1.6 4.1 4.5l-3.6 12c-.4.9-.5 1.9-.5 2.9v14.7c0 1.3.8 2.4 2 2.8v3.2c0 1.7 1.3 3 3 3h2c1.7 0 3-1.3 3-3v-3h30v3c0 1.7 1.3 3 3 3h2c1.7 0 3-1.3 3-3v-3.2c1.2-.4 2-1.5 2-2.8V19.3c0-1-.2-2-.5-2.8ZM6 5.1C6.2 4.4 10.1 2 25 2s18.8 2.4 19 3l3.6 12H2.4L6 5.1ZM8 40c0 .6-.4 1-1 1H5c-.6 0-1-.4-1-1v-3h4v3Zm37 1h-2c-.6 0-1-.4-1-1v-3h4v3c0 .6-.4 1-1 1Zm3-7c0 .6-.4 1-1 1H3c-.6 0-1-.4-1-1V19h46v15Z"/><path d="M8 23c-2.2 0-4 1.8-4 4s1.8 4 4 4 4-1.8 4-4-1.8-4-4-4Zm0 6c-1.1 0-2-.9-2-2s.9-2 2-2 2 .9 2 2-.9 2-2 2Zm34-6c-2.2 0-4 1.8-4 4s1.8 4 4 4 4-1.8 4-4-1.8-4-4-4Zm0 6c-1.1 0-2-.9-2-2s.9-2 2-2 2 .9 2 2-.9 2-2 2Z"/></svg><svg viewBox="0 0 426 74.828" id="car-accent-left" xmlns="http://www.w3.org/2000/svg"><g fill-rule="evenodd"><path d="M426 65.542H319.37M104.505 65.543H0m327.507-45.475s-10.886 1.793-14.202.309c-3.316-1.485-57.175-19.273-78.729-19.76 0 0-17.514-1.254-32.417 5.563-14.903 6.817-27.357 11.749-29.021 12.343-1.665.593-35.73.433-45.076 1.854-9.346 1.421-16.32 3.145-19.76 4.345-3.281 1.145-9.935 3.984-11.114 6.18-1.18 2.198.556 3.796 0 6.182-.556 2.385-2.275 6.71-1.853 8.325.423 1.615 1.6.644 1.853 2.472.253 1.828-8.7 10.7-9.034 10.592-.336-.11 23.282.707 25.706.842.93.052 1.852-.599 1.852-.599s-3.578-25.811 20.068-26.205c21.513-.359 22.652 23.278 22.23 27.731-.038.394 2.071 1.017 2.071 1.017l54.86.547s47.41-.222 48.966 0c1.556.223-4.962-26.627 20.068-29.295 25.029-2.668 23.918 26.348 23.973 26.495.059.147 20.516-.25 21.411-.927.896-.677 7.188-7.163 7.41-8.634.222-1.471-1.8-4.209-2.161-6.18-.362-1.973 2.707-5.52 1.235-8.054-1.473-2.535-6.666-9.326-7.719-10.489-1.053-1.163 2.754-2.689 2.161-2.8-.592-.111-2.778-1.854-2.778-1.854Z"/><path d="m95.34 45.408 5.248.62 5.328 9.778-7.992-2.667v-4.444zm23.008-15.61-13.32.232s-4.031.907-5.328.889c-1.296-.019-1.607 3.522 0 4.444 1.607.922 8.995-.453 9.768 0 .772.453 8.88-5.565 8.88-5.565Zm210.697-6.878c-.745-1.744-3.791 1.774-2.912 4.892.87 3.118 10.105 9.329 10.105 9.329 1.652-.554-5.95-11.335-7.193-14.222ZM285.519 33.994c-10.226 0-18.525 8.308-18.525 18.542 0 10.233 8.3 18.542 18.525 18.542 10.222 0 18.524-8.309 18.524-18.542 0-10.234-8.302-18.542-18.524-18.542Zm12 15.618a12.239 12.239 0 0 0-1.005-2.705l1.353 2.538-.348.167Zm-1.281-3.062c.086.143.172.286.254.431l-.254-.43Zm-7.633-5.986a12.383 12.383 0 0 1 7.719 5.986l-8.953 2.895 1.234-8.88Zm-3.086-.39c1.066 0 2.1.15 3.086.43-1.495.027-3.086-.43-3.086-.43Zm-8.644 3.4c2.113-1.698 5.725-3.4 8.644-3.4 0 0-1.373 9.38-1.544 9.271-2.177-1.387-7.1-5.871-7.1-5.871Zm-2.052 2.78c.77-1.332.857-1.822 2.052-2.78 0 0-1.17 2.545-2.052 2.78Zm-.754 10.817a12.321 12.321 0 0 1-.899-4.635c0-2.251.947-4.98 1.997-6.799l6.956 6.49c-2.77 1.664-8.054 4.944-8.054 4.944Zm1.81 3.09a12.387 12.387 0 0 1-1.81-3.09s1.788 2.622 1.81 3.09Zm15.815 2.98a12.278 12.278 0 0 1-6.175 1.656c-3.899 0-7.375-1.81-9.64-4.636l9.021-4.944 6.794 7.924Zm3.087-2.532a12.45 12.45 0 0 1-3.087 2.532l3.087-2.532Zm2.738-11.097c.229.938.348 1.917.348 2.924 0 3.132-1.166 5.993-3.086 8.173l-6.485-7.555 9.223-3.542Zm-165.6-15.216c-10.002 2.128-16.39 11.981-14.26 21.991 2.13 10.01 11.976 16.409 21.978 14.28 9.998-2.126 16.39-11.98 14.26-21.99-2.13-10.01-11.98-16.409-21.978-14.281Zm14.988 12.78a12.222 12.222 0 0 0-1.546-2.438l1.852 2.201-.306.236Zm-1.89-2.73c.113.122.227.245.338.37l-.339-.37Zm-8.712-4.266a12.383 12.383 0 0 1 8.796 4.249l-8.155 4.695-.641-8.944Zm-3.1.261a11.252 11.252 0 0 1 3.108-.222c-1.456.337-3.108.222-3.108.222Zm-7.747 5.124c1.714-2.1 4.892-4.516 7.747-5.124 0 0 .61 9.46.42 9.39-2.419-.905-8.167-4.266-8.167-4.266Zm-1.428 3.147c.476-1.463.459-1.961 1.428-3.147 0 0-.614 2.733-1.428 3.147Zm1.513 10.737a12.321 12.321 0 0 1-1.843-4.347c-.469-2.202-.11-5.069.538-7.066l8.154 4.9c-2.363 2.204-6.849 6.513-6.849 6.513Zm2.414 2.645a12.387 12.387 0 0 1-2.414-2.645s2.295 2.192 2.414 2.645Zm16.09-.376a12.278 12.278 0 0 1-5.697 2.904 12.325 12.325 0 0 1-10.393-2.528l7.795-6.713 8.294 6.337Zm2.49-3.12a12.45 12.45 0 0 1-2.49 3.12l2.49-3.12Zm.37-11.423c.419.87.74 1.802.949 2.787a12.325 12.325 0 0 1-1.318 8.636l-7.915-6.04 8.284-5.383ZM247.543 27.813l-.926-.928-4.322-.309c-2.88.775-5.764.947-8.645.31l-1.235 1.236 1.544.927h11.423l2.161-1.236Zm31.801-13.926-6.175 4.636-90.46 1.873S199.42 10.42 211.42 6.18c11.707-4.136 28.537-.578 33.961 0 5.647.602 34.242 7.427 33.962 7.707Z"/><path d="m252.175 7.416-4.323 11.107s3.952 8.563 3.705 9.599c-.247 1.035-.556.543-.926 2.472-.37 1.93-4.44 14.668-5.249 16.07-.809 1.401-1.213 3.898-1.852 4.017-.64.12-9.188 10.958-9.88 11.127-.691.169-56.19-.62-56.19-.62l-1.853-9.58s-1.608-20.86-1.543-21.014c.065-.155 0-2.163 0-2.163l4.013-6.49 1.235.309 2.779-1.854 65.761-1.873"/><path d="m195.367 14.215 1.235 1.236.617 3.4-1.852 2.163h-7.41l-3.087-.663s4.152-4.882 10.497-6.136Z"/></g></svg><svg viewBox="0 0 426 74.991" id="car-accent-right" xmlns="http://www.w3.org/2000/svg"><g fill-rule="evenodd"><path d="M0 65.939h106.749M321.246 65.939H426M98.063 19.978s10.876 1.786 14.19.308C115.564 18.808 169.376 1.1 190.91.617c0 0 17.5-1.249 32.39 5.537 14.889 6.786 27.333 11.695 28.995 12.286 1.663.591 35.7.431 45.036 1.846 9.338 1.415 16.306 3.13 19.742 4.325 3.28 1.14 9.927 3.966 11.105 6.153 1.178 2.186-.555 3.777 0 6.152.555 2.374 2.274 6.679 1.85 8.287-.422 1.608-1.597.64-1.85 2.46-.253 1.82 8.693 10.653 9.026 10.544.336-.11-23.262.704-25.683.839-.929.051-1.85-.597-1.85-.597s3.574-25.693-20.051-26.085c-21.494-.357-22.633 23.172-22.21 27.604.037.393-2.07 1.012-2.07 1.012l-54.811.545s-47.368-.22-48.923 0c-1.555.221 4.957-26.505-20.05-29.161-25.008-2.656-23.897 26.228-23.953 26.374-.059.146-20.498-.25-21.392-.923-.895-.674-7.181-7.13-7.403-8.594-.223-1.465 1.798-4.19 2.159-6.153.36-1.963-2.705-5.493-1.234-8.017 1.471-2.523 6.66-9.282 7.712-10.44 1.052-1.158-2.752-2.676-2.16-2.787.593-.11 2.777-1.846 2.777-1.846Z"/><path d="m330.225 45.527-5.446.596-5.528 9.404 8.292-2.565v-4.274zm-22.946-16 13.464.236s4.075.924 5.385.905c1.31-.019 1.625 3.588 0 4.527-1.625.939-9.093-.462-9.873 0-.781.462-8.976-5.668-8.976-5.668ZM96.556 23c.78-1.781 3.964 1.813 3.045 4.998-.91 3.185-10.565 9.529-10.565 9.529-1.727-.566 6.22-11.578 7.52-14.527ZM140.171 34.527c10.188 0 18.457 8.29 18.457 18.5s-8.269 18.5-18.457 18.5c-10.185 0-18.457-8.29-18.457-18.5s8.272-18.5 18.457-18.5ZM128.214 50.11a12.21 12.21 0 0 1 1.002-2.7l-1.348 2.533.346.167Zm1.277-3.055a14.23 14.23 0 0 0-.253.43l.253-.43Zm7.605-5.973a12.34 12.34 0 0 0-7.69 5.973l8.92 2.888-1.23-8.86Zm3.075-.389c-1.063 0-2.093.15-3.075.43 1.49.026 3.075-.43 3.075-.43Zm8.612 3.392c-2.106-1.694-5.704-3.392-8.612-3.392 0 0 1.367 9.36 1.537 9.25 2.17-1.384 7.075-5.858 7.075-5.858Zm2.045 2.775c-.767-1.33-.854-1.819-2.045-2.775 0 0 1.165 2.54 2.045 2.775Zm.75 10.792c.579-1.429.896-2.99.896-4.625 0-2.246-.943-4.97-1.99-6.784l-6.93 6.475c2.76 1.66 8.025 4.934 8.025 4.934Zm-1.803 3.083a12.363 12.363 0 0 0 1.804-3.083s-1.782 2.616-1.804 3.083Zm-15.757 2.973a12.22 12.22 0 0 0 6.153 1.652c3.884 0 7.347-1.806 9.604-4.625l-8.988-4.933-6.77 7.906Zm-3.075-2.527c.88 1 1.92 1.855 3.075 2.527l-3.075-2.527Zm-2.729-11.07a12.306 12.306 0 0 0-.346 2.916c0 3.125 1.162 5.98 3.075 8.154l6.461-7.538-9.19-3.533ZM293.68 34.564c9.987 2.125 16.364 11.976 14.234 21.986-2.13 10.01-11.965 16.411-21.952 14.286-9.985-2.125-16.365-11.976-14.235-21.986 2.13-10.01 11.968-16.41 21.952-14.286Zm-14.973 12.783c.421-.881.944-1.697 1.545-2.438l-1.85 2.202.305.236Zm1.89-2.73c-.114.122-.228.245-.339.37l.338-.37Zm8.7-4.268a12.368 12.368 0 0 0-8.785 4.25l8.142 4.693.643-8.943Zm3.096.26a11.222 11.222 0 0 0-3.104-.22c1.455.336 3.104.22 3.104.22Zm7.735 5.121c-1.71-2.1-4.884-4.514-7.735-5.12 0 0-.612 9.46-.422 9.388 2.416-.905 8.157-4.268 8.157-4.268Zm1.426 3.147c-.475-1.463-.458-1.96-1.426-3.147 0 0 .613 2.733 1.426 3.147Zm-1.515 10.736a12.336 12.336 0 0 0 1.843-4.347c.468-2.201.111-5.068-.536-7.065l-8.145 4.902c2.36 2.204 6.838 6.51 6.838 6.51Zm-2.411 2.647a12.391 12.391 0 0 0 2.411-2.647s-2.292 2.193-2.411 2.647Zm-16.068-.373a12.248 12.248 0 0 0 5.688 2.903c3.808.81 7.58-.237 10.38-2.53l-7.782-6.711-8.286 6.338Zm-2.487-3.118a12.436 12.436 0 0 0 2.487 3.118l-2.487-3.118Zm-.366-11.422a12.373 12.373 0 0 0-.948 2.787 12.335 12.335 0 0 0 1.314 8.635l7.906-6.042-8.272-5.38ZM178.58 27.527l.917-.75 4.276-.25c2.85.626 5.702.765 8.551.25l1.222 1-1.527.75h-11.3l-2.138-1Zm-31.922-13.433 6.183 4.581 90.588 1.852s-16.736-9.86-28.753-14.05c-11.724-4.087-28.577-.571-34.01 0-5.654.594-34.29 7.34-34.008 7.617Z"/><path d="m173.593 7.527 4.305 11.021s-3.936 8.499-3.69 9.526c.246 1.027.553.539.922 2.453.37 1.915 4.423 14.557 5.23 15.948.805 1.39 1.208 3.868 1.844 3.986.637.119 9.154 10.874 9.843 11.042.689.168 55.978-.615 55.978-.615l1.845-9.507s1.603-20.7 1.538-20.854c-.065-.153 0-2.146 0-2.146l-3.998-6.44-1.23.306-2.769-1.84-65.513-1.859"/><path d="m230.26 14.527-1.198 1.272-.598 3.5 1.795 2.228h7.184l2.993-.683s-4.026-5.026-10.177-6.317Z"/></g></svg><svg viewBox="0 0 49 49" id="car-weel" xmlns="http://www.w3.org/2000/svg"><path d="M24.5 0C10.986 0 0 10.986 0 24.5S10.986 49 24.5 49 49 38.014 49 24.5 38.014 0 24.5 0Zm0 41.908c-9.608 0-17.408-7.788-17.408-17.408 0-9.608 7.788-17.408 17.408-17.408 9.608 0 17.408 7.788 17.408 17.408 0 9.608-7.8 17.408-17.408 17.408Z"/><path d="M24 10c-8.276 0-15 6.736-15 15s6.724 15 15 15 15-6.736 15-15-6.724-15-15-15Zm13.084 14.048H29.81a5.811 5.811 0 0 0-1.04-2.491l5.147-5.134a13.073 13.073 0 0 1 3.167 7.625ZM24.94 11.916a13.097 13.097 0 0 1 7.638 3.167l-5.134 5.134a5.877 5.877 0 0 0-2.491-1.04v-7.261h-.013Zm-1.878 0v7.262a5.877 5.877 0 0 0-2.492 1.039l-5.133-5.134a13.027 13.027 0 0 1 7.625-3.167Zm-8.965 4.495 5.134 5.133a5.877 5.877 0 0 0-1.04 2.492h-7.274a13.074 13.074 0 0 1 3.18-7.625Zm-3.18 9.516h7.287c.15.914.513 1.765 1.04 2.491l-5.16 5.159c-1.803-2.091-2.967-4.733-3.167-7.65ZM23.06 38.084a13.033 13.033 0 0 1-7.65-3.18l5.158-5.159a5.877 5.877 0 0 0 2.492 1.04v7.3Zm0-9.228v.013c-.4-.1-.789-.263-1.14-.476l.013-.012a3.958 3.958 0 0 1-1.327-1.328l-.013.013a3.99 3.99 0 0 1-.475-1.14h.012a3.858 3.858 0 0 1-.113-.939c0-.325.038-.638.113-.939h-.012c.1-.4.262-.788.475-1.139l.013.013a3.958 3.958 0 0 1 1.327-1.328l-.012-.012a3.99 3.99 0 0 1 1.139-.476v.013c.3-.076.613-.113.939-.113.326 0 .639.05.94.113v-.013c.4.1.788.263 1.138.476l-.012.012a3.958 3.958 0 0 1 1.327 1.328l.013-.013c.213.35.375.726.475 1.14h-.012c.075.3.113.613.113.938 0 .326-.038.639-.113.94h.012c-.1.4-.262.788-.475 1.139l-.013-.013a3.958 3.958 0 0 1-1.327 1.328l.012.012a3.99 3.99 0 0 1-1.139.476v-.013a3.81 3.81 0 0 1-.939.113 4.57 4.57 0 0 1-.94-.113Zm1.878 9.228v-7.3a5.877 5.877 0 0 0 2.492-1.039l5.158 5.159a13.033 13.033 0 0 1-7.65 3.18Zm8.978-4.507-5.16-5.159a5.877 5.877 0 0 0 1.04-2.491h7.287c-.2 2.917-1.364 5.559-3.167 7.65Z"/></svg><svg viewBox="0 0 46 46" id="car_paint" xmlns="http://www.w3.org/2000/svg"><path d="M44.299 37.323a.742.742 0 0 0-.525-.217.742.742 0 0 1-.742-.742.742.742 0 0 0-.216-.525l-6.667-6.679a.742.742 0 0 0-.525-.218.742.742 0 0 1-.742-.742.742.742 0 0 0-.217-.525l-1.484-1.484a.742.742 0 0 0-.52-.217l-3.418-.01-2.226-2.219a1.076 1.076 0 0 1 .021-1.531l8.278-9a6.107 6.107 0 0 0 0-8.636L32.53 1.794a6.139 6.139 0 0 0-8.673 0l-.115.115-.435-.435a2.596 2.596 0 0 0-3.582 0L.742 20.461c-.99.99-.99 2.594 0 3.583l.529.53-1.146 1.72a.742.742 0 0 0 .092.936l2.009 2.009v13.422a3.34 3.34 0 1 0 6.677 0v-5.566a1.484 1.484 0 1 1 2.968 0 2.968 2.968 0 1 0 5.935 0V20.334l10.388-10.39a2.533 2.533 0 0 0 0-3.582l-1.177-1.177.43-.43a1.082 1.082 0 0 1 1.493 0l3.413 3.413a1.043 1.043 0 0 1-.022 1.484l-8.273 8.996a6.154 6.154 0 0 0 0 8.693l1.91 1.9.01 3.401c.002.195.08.382.218.52l1.484 1.484a.74.74 0 0 0 .525.217c.41 0 .742.333.742.742 0 .197.077.386.216.525l6.667 6.679a.742.742 0 0 0 .525.223c.41 0 .742.332.742.742a.74.74 0 0 0 .217.524l1.484 1.485c.14.139.328.217.525.217h1.483a.742.742 0 0 0 .525-.217l2.146-2.146a.717.717 0 0 0 .081-.07l2.226-2.226a.744.744 0 0 0 .216-.525v-1.484a.742.742 0 0 0-.217-.524l-1.484-1.485ZM3.062 27.977 1.697 26.61l.644-.965 1.688 1.686-.967.645Zm13.26 9.118a1.484 1.484 0 1 1-2.967 0 2.968 2.968 0 1 0-5.936 0v5.566a1.855 1.855 0 1 1-3.71 0V29.329l1.39-.927.53.53a2.53 2.53 0 0 0 3.581 0l7.113-7.114v15.277ZM27.145 7.41c.41.41.41 1.074 0 1.484L8.161 27.882c-.417.39-1.066.39-1.484 0l-4.886-4.887a1.05 1.05 0 0 1 0-1.484L20.774 2.523a1.05 1.05 0 0 1 1.484 0l4.886 4.888Zm-2.038 18.88a4.676 4.676 0 0 1 .022-6.615l8.27-8.999a2.524 2.524 0 0 0 0-3.562L29.986 3.7a2.596 2.596 0 0 0-3.59 0l-.431.43-1.174-1.172.115-.115a4.654 4.654 0 0 1 6.575 0l2.783 2.787a4.624 4.624 0 0 1-.022 6.56l-8.274 8.999a2.555 2.555 0 0 0 0 3.61l1.916 1.906-1.174 1.179-1.603-1.594Zm2.35 4.567-.005-1.618 1.788-1.791 1.62.004-3.402 3.405Zm1.707 2.746a2.205 2.205 0 0 0-.625-.196l-.77-.765 4.881-4.881.773.772c.033.214.098.422.192.617l-4.451 4.453Zm8.15 8.163a2.201 2.201 0 0 0-.624-.196l-6.282-6.293a2.206 2.206 0 0 0-.195-.624l4.452-4.453c.2.098.412.165.632.199l6.281 6.292c.033.214.098.422.193.617l-4.457 4.458Zm7.202-1.258-1.929 1.93a.648.648 0 0 0-.08.07l-2.008 2.008h-.87l-1.073-1.075a2.202 2.202 0 0 0-.196-.624l4.452-4.452c.199.098.412.165.631.198l1.073 1.076v.87Z"/></svg><svg viewBox="0 0 58 58" id="car_wash" xmlns="http://www.w3.org/2000/svg"><path d="M13.404 32.521a52.047 52.047 0 0 0-5.382-.517c-.79-.05-1.831.368-2.012 2.386a4.733 4.733 0 0 0 .143 1.509 2.6 2.6 0 0 0 2.156 1.993l7.701 1.099a.87.87 0 0 0 .864-.418.894.894 0 0 0 .025-.87c-2.533-4.881-3.182-5.084-3.495-5.182Zm-4.851 3.62a.86.86 0 0 1-.704-.66 3.037 3.037 0 0 1-.1-.931c.002-.268.062-.533.175-.776h.025c1.99.126 4.227.31 4.833.418.655.888 1.24 1.826 1.752 2.806l-5.981-.857Zm41.43-4.137a51.905 51.905 0 0 0-5.382.517c-.313.098-.964.3-3.5 5.183a.893.893 0 0 0 .025.87.87.87 0 0 0 .864.417l7.7-1.098a2.6 2.6 0 0 0 2.157-1.992 4.76 4.76 0 0 0 .143-1.508c-.177-2.022-1.224-2.438-2.007-2.39Zm.173 3.474a.86.86 0 0 1-.704.66l-5.981.853a21.59 21.59 0 0 1 1.75-2.804c.618-.11 2.857-.293 4.846-.417.126.239.192.507.19.778a3.03 3.03 0 0 1-.1.93Zm-9.319-2.112a.908.908 0 0 0-.809-.363c-.082.007-8.27.685-11.53.685-3.259 0-11.449-.685-11.53-.685a.905.905 0 0 0-.808.363.825.825 0 0 0-.075.853L18.433 39c.14.284.429.471.755.49l9.306.511 9.32-.511a.894.894 0 0 0 .755-.49l2.347-4.78a.823.823 0 0 0-.08-.853Zm-3.659 4.449-8.682.48-8.677-.48-1.463-2.98c2.566.2 7.653.57 10.144.57 2.49 0 7.579-.37 10.146-.57l-1.468 2.98ZM34.562 5.817l1.29.482A3.15 3.15 0 0 1 37.7 8.143l.483 1.294a.874.874 0 0 0 1.634 0l.483-1.289a3.155 3.155 0 0 1 1.846-1.844l1.29-.483a.873.873 0 0 0 0-1.632l-1.29-.482A3.15 3.15 0 0 1 40.3 1.86L39.822.563a.874.874 0 0 0-1.634 0L37.7 1.852a3.15 3.15 0 0 1-1.846 1.845l-1.29.483a.873.873 0 0 0 0 1.632l-.002.005Zm4.44-2.636a4.89 4.89 0 0 0 1.818 1.817 4.881 4.881 0 0 0-1.818 1.818 4.899 4.899 0 0 0-1.819-1.818 4.899 4.899 0 0 0 1.82-1.817Zm5.562 8.636.977.366c.59.22 1.054.685 1.275 1.274l.366.975a.875.875 0 0 0 1.639 0l.365-.975a2.178 2.178 0 0 1 1.276-1.274l.977-.366a.873.873 0 0 0 0-1.63l-.977-.37a2.164 2.164 0 0 1-1.274-1.272l-.367-.977a.875.875 0 0 0-1.639 0l-.366.977a2.175 2.175 0 0 1-1.275 1.272l-.978.366a.872.872 0 0 0 0 1.63v.004ZM48 10.013c.266.383.6.716.983.982a3.95 3.95 0 0 0-.983.98 3.926 3.926 0 0 0-.982-.98 3.9 3.9 0 0 0 .982-.982Zm1.563-4.196.977.366c.589.22 1.054.684 1.275 1.273l.366.976a.875.875 0 0 0 1.638 0l.366-.976a2.173 2.173 0 0 1 1.274-1.274l.978-.366a.873.873 0 0 0 0-1.631l-.977-.367a2.172 2.172 0 0 1-1.273-1.273l-.367-.977a.875.875 0 0 0-1.638 0l-.366.977a2.173 2.173 0 0 1-1.275 1.273l-.978.367a.873.873 0 0 0 0 1.631v.001Zm3.436-1.799c.267.383.6.715.982.981a3.963 3.963 0 0 0-.982.982 3.927 3.927 0 0 0-.982-.982c.383-.266.716-.598.982-.98ZM55.087 51a.92.92 0 0 0-.909.933v3.872c0 .182-.144.33-.32.33h-4.72a.325.325 0 0 1-.321-.33v-1.597a.92.92 0 0 0-.909-.932.92.92 0 0 0-.908.932v1.597c.001 1.212.958 2.194 2.138 2.195h4.724c1.18-.001 2.137-.983 2.138-2.195v-3.872a.945.945 0 0 0-.268-.662.897.897 0 0 0-.645-.271Zm-44.994 2.274a.921.921 0 0 0-.909.933v1.597a.325.325 0 0 1-.32.33H4.139a.325.325 0 0 1-.32-.33v-3.871a.921.921 0 0 0-.91-.933.921.921 0 0 0-.909.933v3.872c0 1.21.956 2.192 2.135 2.195h4.727c1.18-.001 2.137-.983 2.138-2.195v-1.597a.921.921 0 0 0-.907-.934Z"/><path d="m56.241 22.456-3.036-.52a1.988 1.988 0 0 0-2.186 1.164l-.164.36-2.152-5.03a7.378 7.378 0 0 0-5.67-4.41A91.588 91.588 0 0 0 29.001 13c-4.698-.02-9.39.321-14.033 1.02a7.378 7.378 0 0 0-5.67 4.41L7.14 23.465l-.153-.354A1.994 1.994 0 0 0 4.8 21.935l-3.036.52A2.095 2.095 0 0 0 0 24.519v.59c0 .982.688 1.832 1.654 2.047l2.883.645-1.277 1.932a10.151 10.151 0 0 0-1.694 5.621v10.268c0 3.874 2.723 6.379 6.94 6.379h40.99c4.217 0 6.94-2.504 6.94-6.38V35.349a10.151 10.151 0 0 0-1.695-5.62L53.464 27.8l2.873-.642A2.106 2.106 0 0 0 58 25.112v-.59a2.094 2.094 0 0 0-1.759-2.066ZM2.046 25.388a.286.286 0 0 1-.224-.28v-.59a.281.281 0 0 1 .243-.282l3.05-.522a.18.18 0 0 1 .202.12l.745 1.668-.455.686-3.56-.8Zm52.568 17.428H5.696a.907.907 0 0 0-.91.903c0 .498.407.902.91.902h48.918v1c0 2.862-1.913 4.573-5.118 4.573H8.506c-3.206 0-5.119-1.71-5.119-4.573V35.348a8.372 8.372 0 0 1 1.396-4.631l2.871-4.34h39.74a.908.908 0 0 0 .912-.904.907.907 0 0 0-.911-.902H8.649l2.327-5.431a5.564 5.564 0 0 1 4.277-3.332 89.475 89.475 0 0 1 13.748-1.002 89.475 89.475 0 0 1 13.747.998 5.564 5.564 0 0 1 4.277 3.336l2.663 6.219c.02.05.046.097.076.142l3.454 5.22a8.372 8.372 0 0 1 1.396 4.632v7.463Zm1.564-17.707a.288.288 0 0 1-.232.281l-3.549.795-.454-.686.75-1.685a.184.184 0 0 1 .197-.104l3.044.522c.141.02.245.141.243.282l.001.595Z"/></svg><svg viewBox="0 0 58 58" id="dollar" xmlns="http://www.w3.org/2000/svg"><path d="M29 58c-7.746 0-15.029-3.016-20.506-8.494C3.016 44.03 0 36.746 0 29S3.017 13.971 8.494 8.494C13.97 3.016 21.254 0 29 0s15.029 3.016 20.506 8.494C54.984 13.97 58 21.254 58 29s-3.017 15.029-8.494 20.506C44.03 54.984 36.746 58 29 58Zm0-54.375C15.008 3.625 3.625 15.008 3.625 29S15.008 54.375 29 54.375 54.375 42.992 54.375 29 42.992 3.625 29 3.625Z"/><path d="M29 27.2c-2.45 0-4.444-2.019-4.444-4.5s1.993-4.5 4.444-4.5c2.45 0 4.444 2.019 4.444 4.5 0 .994.796 1.8 1.778 1.8S37 23.694 37 22.7c0-3.848-2.664-7.075-6.222-7.896V12.8c0-.994-.796-1.8-1.778-1.8s-1.778.806-1.778 1.8v2.004C23.664 15.625 21 18.852 21 22.7c0 4.466 3.589 8.1 8 8.1 2.45 0 4.444 2.019 4.444 4.5S31.451 39.8 29 39.8c-2.45 0-4.444-2.019-4.444-4.5 0-.994-.796-1.8-1.778-1.8S21 34.306 21 35.3c0 3.848 2.664 7.075 6.222 7.896V45.2c0 .994.796 1.8 1.778 1.8s1.778-.806 1.778-1.8v-2.004C34.336 42.375 37 39.148 37 35.3c0-4.466-3.589-8.1-8-8.1Z"/></svg><svg viewBox="0 0 64 64" class="isvg iu_1822146852" data-icon-custom="true" data-icon-name="electric-car (1).svg" id="electric_car" xmlns="http://www.w3.org/2000/svg"><path d="m60.501 26.72-3.752-3.002-.045-.039 3.493-.699A.998.998 0 0 0 61 22v-3a1 1 0 0 0-1-1h-5a1 1 0 0 0-1 1v1.752l-.069-.093a.97.97 0 0 0-.317-.429c-.563-.797-1.045-1.595-1.359-2.285l-1.69-3.717C49.488 11.857 46.604 10 44 10H20c-2.604 0-5.488 1.857-6.565 4.228l-1.689 3.716c-.314.69-.796 1.489-1.359 2.286a.977.977 0 0 0-.317.429l-.069.093V19a1 1 0 0 0-1-1H4a1 1 0 0 0-1 1v3c0 .477.336.887.804.98l3.493.699-.045.039-3.753 3.002C1.537 28.29 0 31.488 0 34v17c0 1.654 1.346 3 3 3h8c1.654 0 3-1.346 3-3v-2h36v2c0 1.654 1.346 3 3 3h8c1.654 0 3-1.346 3-3V34c0-2.512-1.537-5.71-3.499-7.28zM51.414 47l-2.293-2.293C48.148 43.734 46.376 43 45 43H18.5c-1.376 0-3.148.734-4.121 1.707L12.086 47H5c-1.654 0-3-1.346-3-3v-5h1v1c0 2.206 1.794 4 4 4h3a1 1 0 0 0 0-2H7c-1.103 0-2-.897-2-2v-1h2c.83 0 2.12.534 2.707 1.121a.997.997 0 0 0 1.414 0 .999.999 0 0 0 0-1.414C10.148 37.734 8.377 37 7 37H2v-3c0-.353.056-.734.135-1.123C2.775 33.545 3.706 34 5 34h8a1 1 0 0 0 .707-.293L15 32.414l1.293 1.293A.997.997 0 0 0 17 34h11.586l2.707 2.707a.997.997 0 0 0 1.414 0L35.414 34H47c.265 0 .52-.105.707-.293L49 32.414l1.293 1.293A.997.997 0 0 0 51 34h8c1.294 0 2.225-.455 2.865-1.123.079.389.135.77.135 1.123v3h-5c-1.376 0-3.148.734-4.121 1.707a.999.999 0 1 0 1.414 1.414C54.88 39.534 56.17 39 57 39h2v1c0 1.103-.897 2-2 2h-3a1 1 0 0 0 0 2h3c2.206 0 4-1.794 4-4v-1h1v5c0 1.654-1.346 3-3 3zm-2.828 0H14.914l.879-.879C16.38 45.534 17.67 45 18.5 45H45c.83 0 2.12.534 2.707 1.121zM11.56 22h40.88c.969 1.281 2.076 2.493 3.059 3.28l1.203.962-7.073 2.829-.002.001a1.001 1.001 0 0 0-.333.22l-1 1L46.586 32H35a.997.997 0 0 0-.707.293L32 34.586l-2.293-2.293A.997.997 0 0 0 29 32H17.414l-1.707-1.707-1-1a1.001 1.001 0 0 0-.333-.22l-.002-.001-7.073-2.829 1.203-.962c.982-.788 2.089-2 3.058-3.281zm49.381 8.419C60.74 31.464 60.092 32 59 32h-7.586l-1-1 .148-.148 7.935-3.174.754.604c.634.507 1.219 1.278 1.69 2.137zM56 20h3v1.18l-3 .6zm-42.435-1.228 1.689-3.716C16.008 13.399 18.181 12 20 12h24c1.819 0 3.992 1.399 4.745 3.055l1.69 3.717c.176.386.405.803.656 1.228H12.909c.251-.425.481-.842.656-1.228zM5 20h3v1.78l-3-.6zm-.252 8.282.754-.604 7.936 3.174.148.148-1 1H5c-1.092 0-1.74-.536-1.941-1.581.471-.859 1.055-1.63 1.689-2.137zM11 52H3c-.551 0-1-.449-1-1v-3.025A4.954 4.954 0 0 0 5 49h7v2c0 .551-.449 1-1 1zm50 0h-8c-.551 0-1-.449-1-1v-2h7c1.13 0 2.162-.391 3-1.025V51c0 .551-.449 1-1 1z"/></svg><svg viewBox="0 0 60.601 60.601" id="fax" xmlns="http://www.w3.org/2000/svg"><path d="M7.786 56.032a3.217 3.217 0 0 1-3.217-3.218V7.786a3.216 3.216 0 0 1 3.217-3.217h45.03a3.216 3.216 0 0 1 3.216 3.217v45.028a3.217 3.217 0 0 1-3.216 3.218H7.786z"/><path d="M26.862 25.603h6.094v1.723h-3.668v1.997h3.51v1.721h-3.51v3.668h-2.426v-9.109m10.998 1.88h-.026l-1.175 3.561h2.284l-1.082-3.561zm-1.487-1.88h2.974l3.51 9.109h-2.661l-.678-1.945h-3.42l-.717 1.945h-2.465l3.457-9.109m9.667 4.319-2.636-4.319h2.832l1.526 3.003 1.566-3.003h2.661l-2.661 4.319 2.923 4.79h-2.897l-1.761-3.354-1.749 3.354h-2.752l2.949-4.79M25.397 16.326c0-2.127-.281-4.178-.778-6.15h-3.25V22.54l3.25.007a25.16 25.16 0 0 0 .778-6.22M21.37 38.054v12.37h3.25a25.23 25.23 0 0 0 .777-6.223c0-2.128-.298-4.17-.795-6.14l-3.233-.007M12.08 30.3a35.2 35.2 0 0 0 6.277 20.124h1.414V38.061a13.638 13.638 0 0 1-2.388-7.76c0-2.904.873-5.537 2.388-7.762V10.177l-1.414-.001A35.204 35.204 0 0 0 12.079 30.3"/></svg><svg viewBox="0 0 55.749 53.684" id="key" xmlns="http://www.w3.org/2000/svg"><g fill-rule="evenodd"><path d="m33.358 23.39-5.938 5.756-2.151 4.672-10.331 10.015-1.505 5.338 5.382-1.34 10.33-10.014 4.737-2.005 5.755-5.58c-2.793-1.452-4.975-3.65-6.28-6.841Z"/><path d="M21.52 13.95c-1.315 6.947 10.011 15.277 18.597 4.055"/><path d="M53.132 22.398c-.032 4.25-15.83 12.969-15.83 12.969-4.363-1.503-5.915-3.616-8.118-7.357-.809-1.374-.55-.541-1.05-2.236 0 0 8.92-16.078 13.133-15.79 4.018.274 11.893 8.601 11.865 12.414Zm-4.43-1.668c-.683-1.585-5.219-6.123-6.803-6.806-.967-.417-3.118 1.743-2.704 2.704.684 1.585 5.22 6.123 6.804 6.806.967.417 3.118-1.743 2.704-2.704Zm-45.625-.472C3.073 16.008 17.395 4.8 17.395 4.8c4.13-1.24 10.62 2.836 10.62 2.836s4.336 6.64 2.984 9.059c0 0-11.739 16.13-15.954 15.877-4.02-.24-11.964-8.501-11.968-12.314Zm23.161-3.434c-.676-1.893-5.871-6.857-7.793-7.447-1.92-.589-4.41 2.019-3.734 3.912.677 1.893 5.872 6.858 7.793 7.447 1.921.589 4.41-2.019 3.734-3.912ZM7.955 20.687c.62 1.774 4.939 6.355 6.804 6.806 2.522.61 4.291-1.495 3.603-3.643-.575-1.798-4.601-6.419-6.527-6.718-2.307-.357-4.575 1.568-3.88 3.555Z"/><path d="M21.52 12.598c2.964-12.236 21.6-8.215 19.112 4.056M13.354 49.1l10.89-10.14"/></g></svg><svg viewBox="0 0 24 24" stroke-linecap="square" color="#fff" id="language" xmlns="http://www.w3.org/2000/svg"><circle cx="12" cy="12" r="10"/><path d="M12 22c2.667-2.424 4-5.758 4-10s-1.333-7.576-4-10C9.333 4.424 8 7.758 8 12s1.333 7.576 4 10ZM2.5 9h19m-19 6h19"/></svg><svg viewBox="0 0 190 34" id="logo_white" xmlns="http://www.w3.org/2000/svg"><path d="M103 26h4V5h-4zm41.74-14.7c0-1.14-.98-2.1-2.144-2.1H123.29v6.3h19.306c1.164 0 2.144-.93 2.144-2.1v-2.1Zm-.306 8.1 4.474 6.6h-5.148l-4.29-6.3h-16.18V26H119V5h23.596C146.15 5 149 7.82 149 11.3v2.1c0 2.85-1.9 5.25-4.566 6Zm22.001 2.37h17.13c1.225 0 2.175-.93 2.175-2.07v-8.4c0-1.14-.95-2.1-2.175-2.1h-17.13c-1.195 0-2.145.96-2.145 2.1v8.4c0 1.14.95 2.07 2.145 2.07m17.13 4.23h-17.13c-3.554 0-6.435-2.85-6.435-6.3v-8.4c0-3.48 2.88-6.3 6.435-6.3h17.13C187.15 5 190 7.82 190 11.3v8.4c0 3.45-2.85 6.3-6.435 6.3m-80.708 5.2v1.6c0 .217.196.394.43.394H108V34h-4.714c-.71 0-1.286-.543-1.286-1.2v-1.6c0-.663.576-1.2 1.286-1.2H108v.8h-4.714c-.233 0-.429.183-.429.4m9.43 1.994h3.426c.244 0 .435-.177.435-.394v-1.6c0-.217-.19-.4-.435-.4h-3.426c-.24 0-.43.183-.43.4v1.6c0 .217.19.394.43.394m3.426.806h-3.426c-.71 0-1.287-.543-1.287-1.2v-1.6c0-.663.576-1.2 1.287-1.2h3.426c.717 0 1.287.537 1.287 1.2v1.6c0 .657-.57 1.2-1.287 1.2m9.435-2.8c0-.217-.196-.4-.429-.4h-3.86V32h3.86c.233 0 .43-.178.43-.4v-.4Zm-.061 1.543.895 1.257h-1.03l-.858-1.2h-3.236V34H120v-4h4.719c.71 0 1.281.537 1.281 1.2v.4c0 .543-.38 1-.913 1.143Zm9.056-1.543c0-.217-.196-.4-.429-.4h-3.857V32h3.857c.233 0 .43-.178.43-.4v-.4Zm.857 0v.4c0 .663-.581 1.2-1.286 1.2h-3.857V34H129v-4h4.714c.705 0 1.286.537 1.286 1.2Zm4.287 1.994h3.426c.244 0 .435-.177.435-.394v-1.6c0-.217-.19-.4-.435-.4h-3.426c-.24 0-.43.183-.43.4v1.6c0 .217.19.394.43.394m3.426.806h-3.426c-.71 0-1.287-.543-1.287-1.2v-1.6c0-.663.576-1.2 1.287-1.2h3.426c.717 0 1.287.537 1.287 1.2v1.6c0 .657-.57 1.2-1.287 1.2m8.435-2.8c0-.217-.196-.4-.429-.4h-3.86V32h3.86c.233 0 .43-.178.43-.4v-.4Zm-.061 1.543.895 1.257h-1.03l-.858-1.2h-3.236V34H146v-4h4.719c.71 0 1.281.537 1.281 1.2v.4c0 .543-.38 1-.913 1.143ZM165.572 34v-3.2H163V30h6v.8h-2.572V34zM171 34h1v-4h-1zm5.287-.806h3.426c.244 0 .435-.177.435-.394v-1.6c0-.217-.19-.4-.435-.4h-3.426c-.24 0-.43.183-.43.4v1.6c0 .217.19.394.43.394m3.426.806h-3.426c-.71 0-1.287-.543-1.287-1.2v-1.6c0-.663.576-1.2 1.287-1.2h3.426c.717 0 1.287.537 1.287 1.2v1.6c0 .657-.57 1.2-1.287 1.2m5.149 0H184v-4h1.006l4.138 3.086V30H190v4h-1.006l-4.132-3.086zm-97.729-8.147H82.12L61.522 9.325v16.528h-4.299V4.427h5.014l20.628 16.53V4.426h4.268v21.426ZM0 0v34h95V0H0Zm158.885 32-.715-1.2h-.34l-.715 1.2h1.77ZM161 34h-.918l-.72-1.2h-2.723l-.72 1.2H155l2.38-4h1.24l2.38 4Z" fill-rule="evenodd"/></svg><svg viewBox="0 0 60.601 60.601" id="parking" xmlns="http://www.w3.org/2000/svg"><path d="M7.785 56.032a3.216 3.216 0 0 1-3.216-3.216V7.786A3.216 3.216 0 0 1 7.786 4.57h45.03a3.216 3.216 0 0 1 3.215 3.216v45.03a3.216 3.216 0 0 1-3.215 3.216H7.786z"/><path d="M43.686 42.623a2.618 2.618 0 1 1 .002-5.237 2.618 2.618 0 0 1-.002 5.237zm-19.098 0a2.62 2.62 0 0 1 0-5.236 2.618 2.618 0 0 1 0 5.236zm.304-13.666.079-.009a88.72 88.72 0 0 1 18.336.001l.078.01 1.8 6.26h-22.1l1.807-6.262zm21.878 6.261-2.2-7.665a89.276 89.276 0 0 0-10.432-.609c-3.53 0-7.011.207-10.432.61l-2.201 7.664a2.385 2.385 0 0 0-2.384 2.39v8.909h2.366l-.001 3.805a5.465 5.465 0 0 0 3.681.01v-3.816l17.94-.004v3.81a5.47 5.47 0 0 0 3.681.01l.001-3.82h2.375v-8.904c0-1.32-1.072-2.39-2.393-2.39M16.538 19.054h1.444c1.926 0 3.46-.692 3.46-2.888 0-2.137-1.534-2.83-3.46-2.83h-1.444zm-5.596-9.688h6.679c6.408 0 9.417 2.167 9.417 6.89 0 4.242-3.099 6.77-8.334 6.77h-2.166v7.341h-5.596V9.366"/></svg><svg viewBox="0 0 60.601 60.601" id="phone1" xmlns="http://www.w3.org/2000/svg"><path d="M7.786 56.032a3.218 3.218 0 0 1-3.217-3.217V7.785a3.217 3.217 0 0 1 3.217-3.216h45.03a3.215 3.215 0 0 1 3.216 3.216v45.03a3.217 3.217 0 0 1-3.216 3.217H7.786z"/><path d="M34.607 16.325c0-2.128-.28-4.176-.777-6.149h-3.25V22.54l3.249.007c.507-1.99.777-4.074.777-6.221m-4.025 21.728v12.37h3.249c.507-1.99.777-4.077.777-6.224 0-2.126-.297-4.169-.795-6.14l-3.23-.006M21.291 30.3a35.212 35.212 0 0 0 6.276 20.125l1.415-.001V38.06a13.633 13.633 0 0 1-2.388-7.761c0-2.904.872-5.536 2.388-7.761V10.176l-1.415-.001A35.215 35.215 0 0 0 21.291 30.3"/></svg><svg viewBox="0 0 58 31" id="speedometer" xmlns="http://www.w3.org/2000/svg"><path d="M28.962 0C12.999 0 0 12.993 0 28.949v.911h20.524v-.911c0-4.635 3.801-8.358 8.438-8.358 1.976 0 3.8.684 5.245 1.9l-4.789 4.786c-.152-.076-.304-.076-.456-.076-1.064 0-1.9.836-1.9 1.9 0 1.063.836 1.899 1.9 1.899s1.9-.836 1.9-1.9c0-.151-.076-.303-.076-.455l4.79-4.787c1.14 1.443 1.9 3.267 1.9 5.242v.76H58v-.911C57.924 12.993 44.925 0 28.962 0Zm10.262 28.037c-.228-2.128-1.064-4.027-2.356-5.623l9.274-9.27-1.293-1.291-9.35 9.27a9.913 9.913 0 0 0-6.537-2.432c-5.321 0-9.73 4.103-10.262 9.346H1.9C2.433 13.525 14.367 1.9 28.962 1.9s26.53 11.625 27.062 26.137h-16.8Z"/><path d="M28 6h2v9h-2zm-15.88 7.122 1.342-1.343 6.609 6.608-1.344 1.343z"/></svg><svg viewBox="0 0 49 49" id="tools" xmlns="http://www.w3.org/2000/svg"><path d="M46.495 34.171c-1.645-1.647-3.79-2.578-6.151-2.578-2.075 0-4.006.716-5.508 2.077L25.68 24.5 40.916 9.243l.572.573 5.58-5.587-2.218-2.221-5.58 5.588.573.573-15.307 15.186-9.156-9.169c1.288-1.576 2.074-3.51 2.074-5.516 0-2.292-.93-4.513-2.575-6.16C12.733.358 9.515-.502 6.51.287L5.151.646l5.222 5.23-4.506 4.512L.645 5.16.287 6.52C-.5 9.53.36 12.752 2.505 14.901c1.645 1.648 3.79 2.58 6.151 2.58 2.075 0 4.006-.717 5.508-2.078l9.227 9.098-10.228 10.244-2.79-2.794-8.941 8.954c-.93.931-1.36 2.078-1.36 3.367 0 1.29.501 2.436 1.36 3.367C2.362 48.57 3.506 49 4.794 49c1.287 0 2.432-.501 3.362-1.361l8.94-8.955-2.789-2.793 10.229-10.244 9.156 9.17c-1.288 1.575-2.075 3.51-2.075 5.515 0 2.292.93 4.513 2.575 6.16C35.837 48.14 37.983 49 40.272 49c.787 0 1.502-.072 2.29-.287l1.358-.358-5.221-5.23 4.434-4.512 5.222 5.23.358-1.362c.787-2.937-.072-6.16-2.218-8.31ZM8.728 15.761c-1.932 0-3.72-.716-5.007-2.077-1.43-1.433-2.146-3.367-2.075-5.445l4.292 4.298 6.724-6.733L8.37 1.506a6.8 6.8 0 0 1 5.365 2.077 7.052 7.052 0 0 1 2.074 5.014c0 1.935-.715 3.726-2.074 5.015a6.819 6.819 0 0 1-5.007 2.15ZM7.01 46.493c-1.216 1.218-3.29 1.218-4.435 0a3.145 3.145 0 0 1-.93-2.221c0-.86.358-1.648.93-2.22l7.797-7.809 4.506 4.513-7.868 7.737Zm36.122-10.1-6.723 6.733 4.291 4.298h-.429a7.031 7.031 0 0 1-5.007-2.077 7.052 7.052 0 0 1-2.074-5.015c0-1.934.715-3.725 2.074-5.014a7.031 7.031 0 0 1 5.007-2.078c1.932 0 3.72.717 5.007 2.078 1.43 1.432 2.146 3.366 2.075 5.444l-4.22-4.37Z"/></svg><svg viewBox="0 0 16 16" id="up" xmlns="http://www.w3.org/2000/svg"><path d="M4.695 7.755a.75.75 0 0 0 1.06.05l1.495-1.36v4.805a.75.75 0 0 0 1.5 0V6.445l1.495 1.36a.75.75 0 0 0 1.01-1.11l-2.75-2.5a.75.75 0 0 0-1.01 0l-2.75 2.5a.75.75 0 0 0-.05 1.06z"/><path fill-rule="evenodd" d="M0 8a8 8 0 1 1 16 0A8 8 0 0 1 0 8zm8-6.5a6.5 6.5 0 1 0 0 13 6.5 6.5 0 0 0 0-13z" clip-rule="evenodd"/></svg></svg>